<svg width="463" height="360" viewBox="0 0 463 360" fill="none" xmlns="http://www.w3.org/2000/svg">
<path opacity="0.1" d="M168.54 357.513C261.622 357.513 337.079 354.826 337.079 351.512C337.079 348.198 261.622 345.511 168.54 345.511C75.4578 345.511 0 348.198 0 351.512C0 354.826 75.4578 357.513 168.54 357.513Z" fill="#EE4444"/>
<path opacity="0.1" d="M124.231 10.8948C134.969 1.3357 151.823 -0.612489 167.164 0.148973C215.351 2.54071 258.848 25.7819 296.474 52.0704C310.094 61.5872 323.505 71.8434 332.346 84.9489C350.345 111.627 345.006 148.586 319.979 170.564C311.464 178.042 301.141 183.774 290.544 188.856C271.702 197.891 251.372 205.144 229.986 207.209C214.736 208.681 199.298 207.484 184.137 205.43C141.779 199.691 100.201 187 65.3521 165.288C50.0677 155.765 35.6614 143.926 29.3614 128.52C23.0614 113.114 27.0933 93.5922 42.7003 84.4735C49.1551 80.7021 56.8727 78.9988 64.4286 77.3994C75.5504 75.0452 86.8506 72.7244 96.8871 67.9384C107.254 62.995 119.529 53.4353 117.476 42.4936C115.274 30.7534 113.507 20.4427 124.231 10.8948Z" fill="#EE4444"/>
<path opacity="0.1" d="M417.924 360C442.819 360 463 358.216 463 356.016C463 353.815 442.819 352.031 417.924 352.031C393.03 352.031 372.849 353.815 372.849 356.016C372.849 358.216 393.03 360 417.924 360Z" fill="#EE4444"/>
<path d="M235.091 135.583C234.358 134.163 230.478 125.344 230.478 125.344L223.977 108.515C223.977 108.515 219.364 101.419 219.364 100.101C219.364 98.7831 210.976 93.5115 210.976 93.5115C210.976 93.5115 204.16 91.484 203.636 91.2812C203.112 91.0785 195.038 88.4103 195.038 88.4103C195.038 88.4103 191.859 84.2336 191.406 85.3244L191.406 85.3272C191.389 85.2996 191.373 85.2757 191.356 85.2474C190.707 84.0348 190.295 82.7093 190.144 81.3424C190.127 81.2209 190.112 81.0927 190.097 80.9661C192.191 79.5482 193.907 77.6415 195.097 75.4113C196.287 73.1812 196.915 70.6948 196.926 68.1676C196.924 67.5022 196.879 66.8377 196.792 66.1781C196.849 66.1422 196.91 66.1104 196.972 66.0833C197.102 66.0266 197.069 65.9806 196.973 65.9325C197.006 65.9153 197.039 65.8971 197.072 65.883C197.246 65.8077 197.13 65.7506 196.962 65.6828L196.972 65.6778C197.208 65.5751 196.909 65.5071 196.669 65.3985C196.656 65.3284 196.644 65.258 196.63 65.1881C196.683 65.0546 196.716 64.9137 196.726 64.7704C196.748 64.781 196.767 64.7924 196.79 64.8023C196.848 64.541 196.847 64.2699 196.785 64.0093C196.77 64.0622 196.752 64.1142 196.731 64.165C196.746 63.9288 196.697 63.6928 196.59 63.4817C196.482 63.2706 196.32 63.0922 196.121 62.965C196.108 62.9544 196.095 62.9432 196.083 62.9326L196.528 58.3846C203.084 58.0751 204.235 46.9307 202.739 46.3116C201.244 45.6925 202.739 44.351 202.739 41.6681C202.739 38.9852 197.793 35.9927 197.793 35.9927C197.793 35.9927 195.722 37.0247 192.502 31.8652C189.281 26.7058 177.433 25.8803 176.627 27.2218C175.822 28.5632 170.531 30.3174 163.629 32.278C156.727 34.2386 157.993 42.3904 159.143 44.1446C160.09 45.5949 160.645 47.2659 160.753 48.9945C160.753 50.0264 162.939 54.3602 162.939 54.3602C162.25 55.862 164.004 64.089 164.523 66.4273C164.515 66.4991 164.507 66.5707 164.499 66.6429C164.495 66.65 164.489 66.656 164.485 66.6631C164.46 66.7009 164.438 66.7402 164.418 66.7807C164.306 67.0231 164.269 67.293 164.312 67.5563C164.274 67.8441 164.314 68.1369 164.428 68.4038C164.468 70.6067 164.978 72.7757 165.924 74.7656C166.871 76.7555 168.233 78.5204 169.917 79.942C169.926 80.0827 169.934 80.2243 169.941 80.3691C170.038 82.2791 170.092 84.5377 169.992 86.6991C169.986 86.8096 169.978 86.9179 169.972 87.028C169.592 87.1048 169.235 87.27 168.93 87.5101C168.625 87.7502 168.381 88.0586 168.218 88.4103C167.567 89.6592 163.793 91.5854 163.793 91.5854C163.793 91.5854 157.187 91.8895 156.558 93.106C155.929 94.3226 146.388 98.3776 146.388 98.3776C146.388 98.3776 141.355 101.317 142.089 104.663C142.472 106.411 141.396 109.127 140.28 111.323C137.947 110.439 135.517 109.833 133.042 109.519L138.387 114.628C138.275 114.803 138.209 114.902 138.209 114.902L135.169 125.648C135.169 125.648 134.12 129.399 133.072 130.311C132.023 131.223 134.015 139.536 134.015 139.536C134.015 139.536 132.862 145.416 131.918 146.937C130.974 148.457 133.386 152.208 133.386 152.208L138.209 163.157L151.001 166.401C151.001 166.401 151.853 166.581 153.231 166.876C153.188 167.137 153.143 167.398 153.098 167.658C152.482 171.145 151.672 174.353 150.686 175.22C148.275 177.349 148.38 186.879 148.38 186.879L148.485 200.362C148.485 200.362 149.323 216.987 148.904 217.596C148.639 217.979 149.171 218.606 150.572 219.168C150.532 219.418 150.493 219.672 150.456 219.931C150.062 222.689 149.885 225.835 150.791 227.226C151.185 227.978 151.4 228.811 151.42 229.659C151.42 230.977 153.413 233.714 153.413 233.714C153.413 233.714 151.84 244.967 154.461 248.819C157.082 252.671 159.284 259.666 158.026 261.288C158.026 261.288 155.824 266.053 156.873 268.182C157.921 270.311 156.873 271.527 155.51 272.034C154.147 272.541 154.264 276.698 154.264 276.698L156.768 296.466C156.768 296.466 158.131 300.521 156.978 301.94C155.824 303.359 155.824 310.456 157.607 312.889C159.389 315.322 155.09 319.782 155.09 319.782C155.09 319.782 152.469 323.533 156.663 324.75C156.663 324.75 157.502 324.953 155.929 326.575C154.356 328.197 154.042 330.224 155.09 330.934C155.308 331.064 155.535 331.177 155.77 331.271C155.731 331.511 155.689 331.76 155.64 332.024C155.237 334.141 154.478 336.899 153.098 338.233C150.424 340.97 148.116 344.042 146.232 347.373C144.794 350.098 144.165 352.648 145.758 353.845C149.533 356.683 154.356 357.595 157.187 356.48C160.018 355.365 164.003 351.918 164.003 351.918L164.946 347.965C164.946 347.965 164.317 345.532 167.463 344.619C170.608 343.707 173.544 340.463 173.544 340.463V335.208C174.306 334.773 175.041 334.294 175.746 333.772C175.746 333.772 177.214 328.602 175.746 326.879C174.278 325.155 173.754 324.547 175.641 323.432C177.528 322.317 177.784 319.884 176.4 317.755C175.012 315.626 172.81 312.483 174.697 308.023C176.585 303.562 177.277 289.877 177.277 289.877C177.277 289.877 176.396 280.55 177.277 278.421C178.157 276.292 176.27 272.034 176.27 272.034C176.27 272.034 176.899 266.763 178.053 264.33C179.206 261.897 180.15 249.022 180.15 249.022C180.15 249.022 182.247 243.548 182.247 240C182.247 236.451 178.996 227.936 183.819 225.706C183.819 225.706 185.916 227.53 185.078 234.829C185.078 234.829 187.489 243.345 187.489 245.981C187.489 248.617 189.272 258.146 189.272 258.146C189.272 258.146 189.481 261.187 190.215 262.302C190.949 263.417 190.215 266.459 190.215 266.459C190.215 266.459 192.941 268.993 192.207 270.615C191.473 272.237 192.333 275.895 192.333 275.895L191.683 298.595C191.683 298.595 189.796 308.327 194.2 314.207C194.2 314.207 192.627 322.824 191.683 323.432C190.74 324.04 195.143 329.312 195.143 329.312C195.143 329.312 193.923 332.727 196.401 332.894V338.537C197.262 340.056 198.443 341.371 199.862 342.389C202.168 344.011 201.225 349.587 201.225 349.587C201.225 349.587 204.16 356.683 211.919 355.163C219.678 353.642 220.727 352.932 220.307 350.398C220.157 349.473 219.821 347.823 219.339 345.95C218.504 342.693 217.225 338.764 215.694 336.826C213.282 333.772 211.29 327.386 211.29 327.386C211.29 327.386 210.347 325.257 211.29 324.547C212.234 323.837 211.815 322.52 211.815 322.52C211.815 322.52 212.733 319.884 211.907 318.262C211.081 316.64 213.492 313.294 213.492 313.294L212.758 297.683L213.492 274.974C213.492 274.974 210.242 271.223 211.605 268.993C212.968 266.763 210.032 263.62 210.032 263.62C210.032 263.62 209.718 263.519 210.556 260.984C211.058 259.491 210.984 257.864 210.347 256.423C210.347 256.423 208.564 250.137 211.71 245.373C211.71 245.373 213.073 239.087 213.492 235.843C213.782 233.589 215.593 225.166 216.671 220.239C216.732 219.961 216.791 219.694 216.847 219.44C218.399 219.524 219.574 219.623 219.574 219.623C219.574 219.623 217.162 202.896 219.574 199.449C221.985 196.003 217.686 169.645 217.686 169.645C217.686 169.645 216.659 165.038 216.025 160.339C215.989 160.071 215.956 159.803 215.923 159.536C217.87 159.38 219.824 159.337 221.775 159.406C226.808 159.71 231.736 157.784 231.841 155.858C231.946 153.932 234.672 146.328 235.091 144.605C235.511 142.882 235.825 137.002 235.091 135.583Z" fill="url(#paint0_linear)"/>
<path d="M173.911 331.148V340.535C173.911 340.535 171.082 343.765 168.051 344.673C165.02 345.582 165.626 348.004 165.626 348.004L164.717 351.94C164.717 351.94 160.878 355.372 158.15 356.482C155.422 357.593 150.775 356.684 147.138 353.858C145.602 352.667 146.208 350.128 147.594 347.415C149.4 344.111 151.624 341.052 154.21 338.314C155.539 336.986 156.271 334.241 156.659 332.133C156.946 330.555 157.039 329.331 157.039 329.331L173.911 331.148Z" fill="#4C495A"/>
<path opacity="0.1" d="M173.911 338.153V340.535C173.911 340.535 171.082 343.765 168.051 344.673C165.02 345.582 165.626 348.004 165.626 348.004L164.717 351.94C164.717 351.94 160.878 355.372 158.15 356.482C155.422 357.593 150.775 356.684 147.138 353.858C145.602 352.667 146.208 350.128 147.594 347.415C147.53 350.265 148.374 353.467 152.492 353.354C156.937 353.213 161.22 351.657 164.717 348.912C164.717 348.912 164.616 342.251 169.264 340.737C170.962 340.177 172.539 339.3 173.911 338.153Z" fill="black"/>
<path d="M210.888 355.17C203.412 356.684 200.583 349.619 200.583 349.619C200.583 349.619 201.492 344.068 199.27 342.453C197.895 341.429 196.758 340.12 195.936 338.617V329.331L205.028 322.871L209.951 327.224L210.282 327.514C210.282 327.514 212.202 333.873 214.525 336.913C216 338.843 217.233 342.755 218.037 345.997C218.502 347.863 218.825 349.506 218.971 350.426C219.375 352.95 218.365 353.656 210.888 355.17Z" fill="#4C495A"/>
<path opacity="0.1" d="M210.888 355.17C203.412 356.684 200.583 349.619 200.583 349.619C200.583 349.619 201.492 344.068 199.27 342.453C197.895 341.429 196.758 340.12 195.936 338.617V335.02C197.378 336.542 200.098 339.489 200.684 340.737C201.492 342.453 201.593 348.711 205.332 349.821C209.07 350.931 216.344 351.94 216.95 349.114C217.202 348.04 217.567 346.995 218.037 345.997C218.502 347.863 218.825 349.506 218.971 350.426C219.375 352.95 218.365 353.656 210.888 355.17Z" fill="black"/>
<path opacity="0.1" d="M157.039 329.331L173.911 331.148V336.11C172.008 337.236 169.28 338.431 167.748 337.204C165.485 335.395 158.756 333.098 156.659 332.133C156.946 330.555 157.039 329.331 157.039 329.331Z" fill="black"/>
<path opacity="0.1" d="M210.282 328.322C207.958 327.514 203.816 331.047 198.36 333.268C197.602 333.625 196.774 333.809 195.936 333.809V329.331L205.028 322.871L209.951 327.224C210.027 327.599 210.138 327.967 210.282 328.322Z" fill="black"/>
<path d="M216.243 217.194C216.243 217.194 215.924 218.679 215.467 220.835C214.428 225.741 212.683 234.126 212.404 236.371C212 239.601 210.686 245.859 210.686 245.859C207.655 250.603 209.373 256.861 209.373 256.861C209.987 258.301 210.059 259.914 209.575 261.403C208.767 263.926 209.07 264.027 209.07 264.027C209.07 264.027 211.899 267.156 210.585 269.377C209.272 271.597 212.404 275.332 212.404 275.332L211.696 297.941L212.404 313.485C212.404 313.485 210.08 316.815 210.876 318.43C211.672 320.045 210.787 322.67 210.787 322.67C210.787 322.67 211.191 323.982 210.282 324.688C209.373 325.395 210.282 327.514 210.282 327.514C207.958 326.707 203.816 330.24 198.36 332.46C192.905 334.681 194.723 329.432 194.723 329.432C194.723 329.432 190.48 324.184 191.389 323.578C192.299 322.972 193.814 314.393 193.814 314.393C189.571 308.539 191.389 298.849 191.389 298.849L192.016 276.248C192.016 276.248 191.187 272.606 191.894 270.991C192.602 269.377 189.975 266.853 189.975 266.853C189.975 266.853 190.682 263.825 189.975 262.715C189.268 261.605 189.066 258.577 189.066 258.577C189.066 258.577 187.348 249.089 187.348 246.465C187.348 243.84 185.024 235.362 185.024 235.362C185.833 228.095 183.812 226.278 183.812 226.278C179.164 228.498 182.296 236.977 182.296 240.509C182.296 244.042 180.276 249.493 180.276 249.493C180.276 249.493 179.367 262.311 178.255 264.734C177.144 267.156 176.538 272.405 176.538 272.405C176.538 272.405 178.356 276.644 177.508 278.763C176.659 280.883 177.508 290.169 177.508 290.169C177.508 290.169 176.841 303.795 175.022 308.236C173.204 312.677 175.325 315.806 176.663 317.926C177.997 320.045 177.75 322.468 175.931 323.578C174.113 324.688 174.618 325.294 176.033 327.01C177.447 328.726 176.033 333.873 176.033 333.873C176.033 333.873 170.274 338.415 167.748 336.397C165.222 334.378 157.14 331.754 156.129 331.047C155.119 330.341 155.422 328.322 156.938 326.707C158.453 325.092 157.645 324.89 157.645 324.89C153.604 323.679 156.129 319.944 156.129 319.944C156.129 319.944 160.272 315.503 158.554 313.081C156.837 310.658 156.837 303.593 157.948 302.18C159.059 300.767 157.746 296.73 157.746 296.73L155.333 277.048C155.333 277.048 155.22 272.909 156.534 272.405C157.847 271.9 158.857 270.689 157.847 268.569C156.837 266.449 158.958 261.706 158.958 261.706C160.171 260.091 158.049 253.126 155.523 249.291C152.997 245.455 154.513 234.252 154.513 234.252C154.513 234.252 152.593 231.526 152.593 230.214C152.574 229.372 152.367 228.544 151.987 227.792C151.114 226.407 151.284 223.274 151.664 220.529C152.032 217.872 152.593 215.579 152.593 215.579L216.243 217.194Z" fill="#5F5D7E"/>
<path d="M196.441 102.836L176.538 107.479C176.538 107.479 166.738 99.2021 169.162 94.761C169.995 93.2349 170.363 90.6308 170.488 87.8773C170.585 85.7254 170.532 83.4766 170.439 81.575C170.298 78.8256 170.072 76.7948 170.072 76.7948C170.072 76.7948 190.48 65.2883 189.773 76.7948C189.629 78.7109 189.674 80.6365 189.906 82.544C190.05 83.9011 190.446 85.2196 191.074 86.4319C192.165 88.3739 193.511 88.4022 193.511 88.4022L196.441 102.836Z" fill="#FDC2CC"/>
<path opacity="0.1" d="M189.906 82.544C187.03 84.6053 183.539 85.6317 180.003 85.4557C176.468 85.2797 173.097 83.9117 170.439 81.575C170.298 78.8255 170.072 76.7948 170.072 76.7948C170.072 76.7948 190.48 65.2883 189.773 76.7948C189.629 78.7109 189.674 80.6365 189.906 82.544Z" fill="black"/>
<path d="M180.781 85.0713C189.43 85.0713 196.441 78.0669 196.441 69.4266C196.441 60.7862 189.43 53.7818 180.781 53.7818C172.132 53.7818 165.121 60.7862 165.121 69.4266C165.121 78.0669 172.132 85.0713 180.781 85.0713Z" fill="#FDC2CC"/>
<path opacity="0.1" d="M196.441 102.836L176.538 107.479C176.538 107.479 166.738 99.2021 169.162 94.761C169.995 93.2349 170.363 90.6308 170.488 87.8773C170.927 90.2716 172.214 92.4282 174.113 93.9535C178.659 96.9815 177.952 100.716 177.952 100.716L186.136 100.413C185.63 97.0825 188.661 95.2657 189.672 94.8619C190.682 94.4582 190.177 92.6414 190.177 92.6414L191.074 86.4319C192.165 88.3739 193.511 88.4022 193.511 88.4022L196.441 102.836Z" fill="black"/>
<path opacity="0.1" d="M216.243 217.194C216.243 217.194 215.924 218.679 215.467 220.835C213.269 220.718 210.363 220.634 209.07 220.928C206.847 221.433 197.956 221.635 197.956 221.635L175.932 222.414V221.736C173.398 221.756 170.868 221.925 168.354 222.24C164.616 222.745 158.756 222.039 155.018 221.433C153.868 221.268 152.741 220.965 151.664 220.529C152.032 217.872 152.593 215.579 152.593 215.579L216.243 217.194Z" fill="black"/>
<path d="M214.525 153.101C214.206 154.986 214.44 158.111 214.845 161.196C215.455 165.875 216.445 170.461 216.445 170.461C216.445 170.461 220.587 196.704 218.263 200.136C215.94 203.568 218.263 220.222 218.263 220.222C218.263 220.222 211.292 219.616 209.07 220.121C206.847 220.626 197.956 220.827 197.956 220.827L175.932 221.607V220.928C173.398 220.949 170.868 221.117 168.354 221.433C164.616 221.938 158.756 221.231 155.018 220.625C151.28 220.02 149.765 218.809 150.169 218.203C150.573 217.597 149.765 201.044 149.765 201.044L149.663 187.62C149.663 187.62 149.562 178.132 151.886 176.013C152.836 175.149 153.616 171.955 154.21 168.483C155.063 163.457 155.523 157.845 155.523 157.845L140.167 116.765L139.863 115.957C139.863 115.957 144.309 109.094 143.602 105.763C142.894 102.432 147.744 99.5049 147.744 99.5049C147.744 99.5049 156.938 95.4675 157.544 94.2563C158.15 93.0451 164.515 92.7423 164.515 92.7423C164.515 92.7423 168.152 90.8246 168.779 89.5811C168.931 89.2337 169.164 88.9276 169.459 88.6882C169.753 88.4488 170.1 88.2829 170.472 88.2043C170.9 90.6281 172.194 92.8143 174.113 94.3573C178.659 97.3853 177.952 101.12 177.952 101.12L186.136 100.817C185.63 97.4862 188.661 95.6694 189.672 95.2657C190.682 94.8619 190.177 93.0451 190.177 93.0451L191.123 86.5087C191.559 85.4226 194.622 89.5811 194.622 89.5811C194.622 89.5811 202.402 92.2377 202.907 92.4395C203.412 92.6414 209.979 94.6601 209.979 94.6601C209.979 94.6601 218.061 99.9086 218.061 101.221C218.061 102.533 222.507 109.598 222.507 109.598C222.507 109.598 222.454 109.881 222.357 110.398C221.331 115.961 215.265 148.761 214.525 153.101Z" fill="#EE4444"/>
<path d="M182.195 136.749C182.195 136.749 164.717 132.107 163 130.996C161.282 129.886 151.179 136.346 163.505 145.127C163.505 145.127 178.577 148.256 182.609 145.127C186.641 141.998 182.195 136.749 182.195 136.749Z" fill="#FDC2CC"/>
<path opacity="0.1" d="M219.981 109.094L222.103 109.195L228.367 125.95C228.367 125.95 232.105 134.731 232.812 136.144C233.519 137.557 233.216 143.411 232.812 145.127C232.408 146.843 229.781 154.413 229.68 156.331C229.579 158.248 224.831 160.166 219.981 159.863C215.132 159.561 203.816 161.075 203.816 161.075C203.816 161.075 191.732 159.813 184.317 163.598C184.317 163.598 179.569 153.807 180.074 135.538C180.074 135.538 188.459 135.034 190.581 135.841C192.703 136.649 203.008 138.97 204.321 137.759C205.635 136.548 211.595 139.979 211.595 139.979C211.899 139.314 212.056 138.591 212.056 137.86C212.056 137.128 211.899 136.406 211.595 135.74C210.585 133.318 208.868 125.748 211.09 123.325C213.313 120.903 219.981 109.094 219.981 109.094Z" fill="black"/>
<path opacity="0.1" d="M214.845 161.196C209.829 161.535 204.22 162.286 204.22 162.286C204.22 162.286 192.137 161.022 184.721 164.809C184.721 164.809 179.973 155.018 180.478 136.749C180.478 136.749 188.864 136.245 190.985 137.052C193.107 137.86 203.412 140.181 204.725 138.97C206.039 137.759 212 141.191 212 141.191C212.303 140.525 212.46 139.802 212.46 139.071C212.46 138.34 212.303 137.617 212 136.951C210.989 134.529 209.272 126.959 211.494 124.536C213.717 122.114 220.385 110.305 220.385 110.305L222.357 110.398C221.331 115.961 215.265 148.761 214.525 153.101C214.206 154.986 214.441 158.111 214.845 161.196Z" fill="black"/>
<path d="M220.385 109.497L222.507 109.598L228.771 126.353C228.771 126.353 232.509 135.135 233.216 136.548C233.923 137.961 233.62 143.815 233.216 145.531C232.812 147.247 230.185 154.817 230.084 156.734C229.983 158.652 225.235 160.57 220.385 160.267C215.536 159.964 204.22 161.478 204.22 161.478C204.22 161.478 192.136 160.216 184.721 164.002C184.721 164.002 179.973 154.211 180.478 135.942C180.478 135.942 188.863 135.437 190.985 136.245C193.107 137.052 203.412 139.374 204.725 138.163C206.039 136.951 212 140.383 212 140.383C212.303 139.718 212.46 138.995 212.46 138.263C212.46 137.532 212.303 136.809 212 136.144C210.989 133.721 209.272 126.151 211.494 123.729C213.717 121.307 220.385 109.497 220.385 109.497Z" fill="#EE4444"/>
<path d="M199.04 146.572L201.561 148.131L215.609 125.464L213.088 123.905L199.04 146.572Z" fill="#DFE6F5"/>
<path d="M222.813 122.395C225.296 118.389 225.028 113.731 222.216 111.991C219.404 110.252 215.111 112.089 212.628 116.095C210.145 120.101 210.413 124.758 213.225 126.498C216.037 128.238 220.33 126.401 222.813 122.395Z" fill="#DFE6F5"/>
<path opacity="0.1" d="M221.376 121.506C223.158 118.63 222.966 115.287 220.947 114.038C218.929 112.79 215.847 114.108 214.065 116.984C212.283 119.859 212.475 123.202 214.494 124.451C216.512 125.7 219.594 124.381 221.376 121.506Z" fill="black"/>
<path d="M191.86 158.157L194.381 159.716L203.122 145.613L200.601 144.053L191.86 158.157Z" fill="#53526B"/>
<path d="M177.043 159.157L183.206 157.441C183.206 157.441 213.616 158.248 203.412 145.733C203.412 145.733 198.057 140.585 186.843 144.723C175.628 148.862 172.496 149.366 172.496 149.366L177.043 159.157Z" fill="#FDC2CC"/>
<path opacity="0.1" d="M172.496 106.368C173.166 106.368 173.709 105.826 173.709 105.157C173.709 104.488 173.166 103.946 172.496 103.946C171.827 103.946 171.284 104.488 171.284 105.157C171.284 105.826 171.827 106.368 172.496 106.368Z" fill="black"/>
<path opacity="0.1" d="M193.309 105.662C193.978 105.662 194.521 105.12 194.521 104.451C194.521 103.782 193.978 103.239 193.309 103.239C192.639 103.239 192.096 103.782 192.096 104.451C192.096 105.12 192.639 105.662 193.309 105.662Z" fill="black"/>
<path d="M172.496 105.965C173.166 105.965 173.709 105.422 173.709 104.753C173.709 104.085 173.166 103.542 172.496 103.542C171.827 103.542 171.284 104.085 171.284 104.753C171.284 105.422 171.827 105.965 172.496 105.965Z" fill="white"/>
<path opacity="0.1" d="M174.214 123.123C174.884 123.123 175.426 122.581 175.426 121.912C175.426 121.243 174.884 120.701 174.214 120.701C173.544 120.701 173.002 121.243 173.002 121.912C173.002 122.581 173.544 123.123 174.214 123.123Z" fill="black"/>
<path opacity="0.1" d="M193.915 121.912C194.585 121.912 195.127 121.37 195.127 120.701C195.127 120.032 194.585 119.49 193.915 119.49C193.245 119.49 192.703 120.032 192.703 120.701C192.703 121.37 193.245 121.912 193.915 121.912Z" fill="black"/>
<path d="M174.214 122.72C174.884 122.72 175.426 122.177 175.426 121.508C175.426 120.84 174.884 120.297 174.214 120.297C173.544 120.297 173.002 120.84 173.002 121.508C173.002 122.177 173.544 122.72 174.214 122.72Z" fill="white"/>
<path opacity="0.1" d="M193.41 180.36C194.079 180.36 194.622 179.818 194.622 179.149C194.622 178.48 194.079 177.937 193.41 177.937C192.74 177.937 192.198 178.48 192.198 179.149C192.198 179.818 192.74 180.36 193.41 180.36Z" fill="black"/>
<path opacity="0.1" d="M177.454 180.36C178.124 180.36 178.666 179.818 178.666 179.149C178.666 178.48 178.124 177.937 177.454 177.937C176.784 177.937 176.242 178.48 176.242 179.149C176.242 179.818 176.784 180.36 177.454 180.36Z" fill="black"/>
<path d="M193.41 179.956C194.079 179.956 194.622 179.414 194.622 178.745C194.622 178.076 194.079 177.534 193.41 177.534C192.74 177.534 192.198 178.076 192.198 178.745C192.198 179.414 192.74 179.956 193.41 179.956Z" fill="white"/>
<path opacity="0.1" d="M178.666 200.641C179.336 200.641 179.879 200.098 179.879 199.429C179.879 198.76 179.336 198.218 178.666 198.218C177.997 198.218 177.454 198.76 177.454 199.429C177.454 200.098 177.997 200.641 178.666 200.641Z" fill="black"/>
<path opacity="0.1" d="M193.915 199.429C194.585 199.429 195.127 198.887 195.127 198.218C195.127 197.549 194.585 197.007 193.915 197.007C193.245 197.007 192.703 197.549 192.703 198.218C192.703 198.887 193.245 199.429 193.915 199.429Z" fill="black"/>
<path d="M178.666 200.237C179.336 200.237 179.879 199.695 179.879 199.026C179.879 198.357 179.336 197.814 178.666 197.814C177.997 197.814 177.454 198.357 177.454 199.026C177.454 199.695 177.997 200.237 178.666 200.237Z" fill="white"/>
<path d="M177.454 179.956C178.124 179.956 178.666 179.414 178.666 178.745C178.666 178.076 178.124 177.534 177.454 177.534C176.784 177.534 176.242 178.076 176.242 178.745C176.242 179.414 176.784 179.956 177.454 179.956Z" fill="white"/>
<path d="M193.915 199.026C194.585 199.026 195.127 198.483 195.127 197.814C195.127 197.146 194.585 196.603 193.915 196.603C193.245 196.603 192.703 197.146 192.703 197.814C192.703 198.483 193.245 199.026 193.915 199.026Z" fill="white"/>
<path d="M193.309 105.258C193.978 105.258 194.521 104.716 194.521 104.047C194.521 103.378 193.978 102.836 193.309 102.836C192.639 102.836 192.096 103.378 192.096 104.047C192.096 104.716 192.639 105.258 193.309 105.258Z" fill="white"/>
<path d="M193.915 121.508C194.585 121.508 195.127 120.966 195.127 120.297C195.127 119.628 194.585 119.086 193.915 119.086C193.245 119.086 192.703 119.628 192.703 120.297C192.703 120.966 193.245 121.508 193.915 121.508Z" fill="white"/>
<path opacity="0.1" d="M195.734 162.79C195.734 162.79 195.936 190.446 196.542 195.392C196.542 195.392 196.762 164.094 195.734 162.79Z" fill="black"/>
<path opacity="0.1" d="M200.886 175.609C200.47 175.609 209.171 208.009 209.575 210.33C209.979 212.652 203.311 175.609 200.886 175.609Z" fill="black"/>
<path opacity="0.1" d="M207.756 170.36C207.756 170.663 212.606 187.923 215.031 188.831C217.455 189.74 207.756 170.36 207.756 170.36Z" fill="black"/>
<path opacity="0.1" d="M226.851 136.749C226.851 136.749 216.546 137.208 216.243 138.695C215.94 140.181 226.851 136.749 226.851 136.749Z" fill="black"/>
<path opacity="0.1" d="M208.666 268.367C208.666 268.367 201.29 271.496 202.402 271.698C203.513 271.9 208.666 268.367 208.666 268.367Z" fill="black"/>
<path opacity="0.1" d="M193.41 263.724C193.123 263.079 198.36 266.349 198.36 266.752C198.36 267.156 193.814 264.633 193.41 263.724Z" fill="black"/>
<path opacity="0.1" d="M200.28 274.322C200.28 274.322 206.039 274.032 206.443 276.246C206.847 278.461 200.28 274.322 200.28 274.322Z" fill="black"/>
<path opacity="0.1" d="M158.857 274.31C158.857 274.31 165.121 273.086 165.626 274.31C166.132 275.533 158.857 274.31 158.857 274.31Z" fill="black"/>
<path opacity="0.1" d="M161.181 312.374C161.181 312.374 161.592 317.522 160.073 318.733C158.554 319.944 161.181 312.374 161.181 312.374Z" fill="black"/>
<path opacity="0.1" d="M160.416 323.275C162.393 323.477 172.8 321.66 172.699 323.275C172.598 324.89 160.416 323.275 160.416 323.275Z" fill="black"/>
<path opacity="0.1" d="M208.16 317.017C208.16 317.017 204.611 316.472 205.477 318.864L208.16 317.017Z" fill="black"/>
<path opacity="0.1" d="M142.187 115.553H140.268L137.338 126.252C137.338 126.252 136.327 129.987 135.317 130.895C134.307 131.804 136.226 140.08 136.226 140.08C136.226 140.08 135.115 145.934 134.206 147.448C133.296 148.962 135.62 152.697 135.62 152.697L140.268 163.598L152.593 166.828C152.593 166.828 174.315 171.572 175.325 172.278C176.336 172.985 177.245 171.975 177.952 165.415C178.659 158.854 180.579 146.136 182.094 145.531C182.094 145.531 169.971 146.843 168.96 146.641C167.95 146.439 163.101 146.742 163.101 146.742C163.101 146.742 156.736 146.338 155.725 146.944C154.715 147.549 157.039 144.012 157.039 144.012C157.464 142.393 157.464 140.691 157.039 139.071C156.332 136.346 155.927 105.46 142.187 115.553Z" fill="black"/>
<path opacity="0.1" d="M181.69 146.742C180.175 147.348 178.255 160.065 177.548 166.626C176.841 173.187 175.932 174.196 174.921 173.489C174.101 172.916 159.621 169.678 154.21 168.483C155.063 163.457 155.523 157.845 155.523 157.845L140.167 116.765H141.783C155.523 106.671 155.927 137.557 156.635 140.282C157.06 141.902 157.06 143.604 156.635 145.224C156.635 145.224 154.311 148.761 155.321 148.155C156.332 147.549 162.696 147.953 162.696 147.953C162.696 147.953 167.546 147.65 168.556 147.852C169.567 148.054 181.69 146.742 181.69 146.742Z" fill="black"/>
<path d="M141.783 115.957H139.863L136.934 126.656C136.934 126.656 135.923 130.391 134.913 131.299C133.903 132.207 135.822 140.484 135.822 140.484C135.822 140.484 134.711 146.338 133.802 147.852C132.892 149.366 135.216 153.101 135.216 153.101L139.863 164.002L152.189 167.231C152.189 167.231 173.911 171.975 174.921 172.682C175.932 173.389 176.841 172.379 177.548 165.818C178.255 159.258 180.175 146.54 181.69 145.934C181.69 145.934 169.567 147.247 168.556 147.045C167.546 146.843 162.696 147.146 162.696 147.146C162.696 147.146 156.332 146.742 155.321 147.348C154.311 147.953 156.635 144.416 156.635 144.416C157.06 142.796 157.06 141.094 156.635 139.475C155.927 136.749 155.523 105.864 141.783 115.957Z" fill="#EE4444"/>
<path opacity="0.1" d="M148.35 152.495C148.35 152.495 142.793 162.992 141.783 161.781C140.773 160.57 148.35 152.495 148.35 152.495Z" fill="black"/>
<path opacity="0.1" d="M142.591 146.518C142.591 146.518 137.439 150.779 139.863 151.89C142.288 153 142.591 146.518 142.591 146.518Z" fill="black"/>
<path opacity="0.1" d="M147.441 141.292C147.845 141.392 154.917 142.796 155.018 143.406C155.119 144.017 147.441 141.292 147.441 141.292Z" fill="black"/>
<path opacity="0.1" d="M196.485 67.3514C196.266 67.4286 196.078 67.5772 195.953 67.7733C195.828 67.9694 195.772 68.2018 195.794 68.4334C195.382 68.7968 194.804 68.3688 194.469 67.9045C194.129 67.4442 193.745 66.875 193.232 66.9396C192.988 67.0173 192.752 67.1159 192.525 67.2343C191.717 67.4927 191.034 66.5439 190.581 65.7122C189.793 64.2547 189.005 62.7986 188.217 61.3438C186.637 62.2603 184.77 61.2994 183.202 60.3506C181.634 59.4018 179.767 58.4369 178.183 59.3534C175.859 60.6938 175.774 65.1632 173.365 66.2653C172.589 66.6206 171.688 66.5439 170.969 67.0324C170.258 67.5169 169.874 68.4495 169.554 69.3418C169.436 69.8497 169.159 70.3066 168.762 70.6459C168.511 70.7774 168.23 70.8454 167.946 70.8437C167.232 70.9649 166.498 70.862 165.845 70.549C165.502 70.334 165.244 70.0088 165.111 69.6271C164.979 69.2453 164.981 68.8299 165.117 68.4495C165.136 68.4092 165.158 68.3701 165.182 68.3325C165.441 68.0198 165.673 67.6863 165.877 67.3352C166.119 66.6933 165.772 65.9464 165.849 65.252C165.974 64.065 167.231 63.4392 167.445 62.2724C167.534 61.8162 167.441 61.3277 167.526 60.8674C167.538 60.8071 167.554 60.7477 167.574 60.6898L166.835 61.1985C167.663 60.2335 168.079 58.8931 168.686 57.7223C169.359 56.4403 170.286 55.3082 171.41 54.3942C172.533 53.4803 173.831 52.8036 175.224 52.4051C177.859 51.638 180.644 51.8479 183.303 52.498C185.831 53.1273 188.254 54.1244 190.492 55.4573C191.292 55.8858 192.002 56.4626 192.585 57.1571C193.074 57.877 193.49 58.6439 193.826 59.4462C194.61 61.0693 196.752 62.5711 195.047 62.7972C193.628 62.987 194.921 63.9802 195.665 64.6504C195.833 64.7818 195.977 64.94 196.093 65.1187C196.217 65.374 196.273 65.6565 196.258 65.9397C196.242 66.2228 196.155 66.4974 196.004 66.7377C195.717 67.1011 196.881 67.1737 196.485 67.3514Z" fill="black"/>
<path d="M196.485 66.9477C196.266 67.0249 196.078 67.1734 195.953 67.3695C195.828 67.5657 195.772 67.7981 195.794 68.0297C195.382 68.393 194.804 67.9651 194.469 67.5008C194.129 67.0405 193.745 66.4712 193.232 66.5358C192.988 66.6135 192.752 66.7121 192.525 66.8306C191.717 67.0889 191.034 66.1402 190.581 65.3085C189.793 63.851 189.005 62.3949 188.217 60.9401C186.637 61.8566 184.77 60.8957 183.202 59.9469C181.634 58.9981 179.767 58.0332 178.183 58.9497C175.859 60.2901 175.774 64.7594 173.365 65.8616C172.589 66.2169 171.688 66.1402 170.969 66.6287C170.258 67.1132 169.874 68.0458 169.554 68.9381C169.436 69.446 169.159 69.9029 168.762 70.2421C168.511 70.3737 168.23 70.4416 167.946 70.44C167.232 70.5612 166.498 70.4582 165.845 70.1452C165.502 69.9303 165.244 69.6051 165.111 69.2233C164.979 68.8416 164.981 68.4262 165.117 68.0458C165.136 68.0055 165.158 67.9664 165.182 67.9287C165.441 67.6161 165.673 67.2825 165.877 66.9315C166.119 66.2896 165.772 65.5427 165.849 64.8482C165.974 63.6613 167.231 63.0355 167.445 61.8687C167.534 61.4124 167.441 60.9239 167.526 60.4637C167.538 60.4034 167.554 60.344 167.574 60.286L166.835 60.7947C167.663 59.8298 168.079 58.4894 168.686 57.3186C169.359 56.0366 170.286 54.9044 171.41 53.9905C172.533 53.0766 173.831 52.3999 175.224 52.0013C177.859 51.2343 180.644 51.4442 183.303 52.0942C185.831 52.7236 188.254 53.7207 190.492 55.0536C191.292 55.482 192.002 56.0589 192.585 56.7533C193.074 57.4733 193.49 58.2401 193.826 59.0425C194.61 60.6655 196.752 62.1674 195.047 62.3935C193.628 62.5833 194.921 63.5765 195.665 64.2467C195.833 64.378 195.977 64.5363 196.093 64.715C196.217 64.9703 196.273 65.2528 196.258 65.5359C196.242 65.8191 196.155 66.0936 196.004 66.334C195.717 66.6973 196.881 66.77 196.485 66.9477Z" fill="#865A61"/>
<path opacity="0.1" d="M195.665 64.2467L195.503 65.9464C195.503 65.9464 178.546 44.4758 165.356 68.7201C165.356 68.7201 165.291 68.4253 165.182 67.9287C165.441 67.6161 165.673 67.2825 165.877 66.9315C166.119 66.2896 165.772 65.5427 165.849 64.8482C165.974 63.6613 167.231 63.0354 167.445 61.8687C167.534 61.4124 167.441 60.9239 167.526 60.4637C167.538 60.4034 167.554 60.344 167.574 60.286L166.835 60.7947C167.663 59.8298 168.079 58.4894 168.686 57.3186C169.359 56.0366 170.286 54.9044 171.41 53.9905C172.533 53.0766 173.831 52.3999 175.224 52.0013C177.859 51.2343 180.644 51.4442 183.303 52.0942C185.831 52.7236 188.254 53.7207 190.492 55.0536C191.292 55.482 192.002 56.0589 192.585 56.7533C193.074 57.4733 193.49 58.2401 193.826 59.0425C194.61 60.6655 196.752 62.1674 195.047 62.3935C193.628 62.5833 194.921 63.5765 195.665 64.2467Z" fill="black"/>
<g opacity="0.1">
<path opacity="0.1" d="M196.083 66.7278C195.999 66.8217 195.939 66.9335 195.905 67.0547C195.872 67.1759 195.867 67.3032 195.891 67.4266C195.479 67.7899 194.901 67.362 194.565 66.8977C194.226 66.4374 193.842 65.8682 193.329 65.9327C193.085 66.0104 192.848 66.109 192.621 66.2275C191.813 66.4859 191.13 65.5371 190.678 64.7054C189.89 63.2479 189.102 61.7918 188.314 60.337C186.733 61.2535 184.866 60.2926 183.298 59.3438C181.73 58.395 179.863 57.4301 178.279 58.3466C175.955 59.687 175.871 64.1563 173.462 65.2585C172.686 65.6138 171.785 65.5371 171.065 66.0256C170.354 66.5101 169.97 67.4427 169.651 68.335C169.533 68.8429 169.255 69.2998 168.859 69.639C168.607 69.7706 168.327 69.8385 168.043 69.8369C167.328 69.9581 166.594 69.8551 165.941 69.5421C165.55 69.2828 165.269 68.8871 165.154 68.4323C165.073 68.7939 165.106 69.1715 165.247 69.5142C165.387 69.857 165.63 70.1485 165.941 70.3496C166.594 70.6626 167.328 70.7656 168.043 70.6443C168.327 70.646 168.607 70.5781 168.859 70.4465C169.255 70.1073 169.533 69.6504 169.651 69.1424C169.97 68.2502 170.354 67.3175 171.065 66.8331C171.785 66.3446 172.686 66.4213 173.462 66.066C175.871 64.9638 175.955 60.4944 178.279 59.154C179.863 58.2375 181.73 59.2025 183.298 60.1512C184.866 61.1 186.733 62.0609 188.314 61.1444C189.102 62.5979 189.89 64.054 190.678 65.5129C191.13 66.3446 191.813 67.2933 192.621 67.035C192.848 66.9165 193.085 66.8179 193.329 66.7402C193.842 66.6756 194.226 67.2449 194.565 67.7051C194.901 68.1694 195.479 68.5974 195.891 68.234C195.868 68.0025 195.924 67.77 196.05 67.5739C196.175 67.3778 196.362 67.2292 196.582 67.152C196.897 67.0108 196.227 66.9353 196.083 66.7278Z" fill="black"/>
<path opacity="0.1" d="M194.762 62.6941C194.884 62.645 195.012 62.6126 195.143 62.5979C195.895 62.4982 195.898 62.1501 195.6 61.6534C195.459 61.7296 195.303 61.7763 195.143 61.7904C194.332 61.8989 194.409 62.2706 194.762 62.6941Z" fill="black"/>
<path opacity="0.1" d="M196.31 66.076C196.366 65.8156 196.365 65.5462 196.306 65.2864C196.27 65.4474 196.2 65.5989 196.101 65.7309C195.974 65.8912 196.13 65.9948 196.31 66.076Z" fill="black"/>
<path opacity="0.1" d="M165.969 64.9129C165.96 64.9591 165.95 65.0047 165.945 65.0526C165.929 65.4162 165.955 65.7805 166.024 66.1379C166.072 65.7292 166.053 65.3156 165.969 64.9129Z" fill="black"/>
<path opacity="0.1" d="M167.609 59.9872C167.419 60.3471 167.192 60.6862 166.931 60.9991L167.584 60.5504C167.58 60.3623 167.589 60.1742 167.609 59.9872Z" fill="black"/>
</g>
<path d="M165.355 68.3163C165.355 68.3163 162.916 57.426 163.692 55.6795C163.692 55.6795 161.586 51.3645 161.586 50.3371C161.484 48.6227 160.95 46.9618 160.034 45.5084C158.926 43.7618 157.707 35.6455 164.357 33.6935C171.008 31.7414 176.106 29.9949 176.882 28.6593C177.658 27.3237 189.074 28.1456 192.178 33.2825C195.281 38.4194 197.276 37.3921 197.276 37.3921C197.276 37.3921 202.043 40.3715 202.043 43.0427C202.043 45.7139 200.602 47.0495 202.043 47.6659C203.483 48.2823 202.375 59.3781 196.057 59.6863L195.503 65.5424C195.503 65.5424 178.545 44.07 165.355 68.3163Z" fill="#EE4444"/>
<path opacity="0.1" d="M166.081 35.8156C166.081 35.8156 164.616 44.395 167.293 47.2716L166.081 35.8156Z" fill="black"/>
<path opacity="0.1" d="M172.951 33.8474C172.951 33.8474 169.213 43.0324 170.122 44.7987L172.951 33.8474Z" fill="black"/>
<path opacity="0.1" d="M176.184 30.9203C176.184 30.9203 173.658 42.881 174.871 43.8399L176.184 30.9203Z" fill="black"/>
<path opacity="0.1" d="M180.528 34.1502C180.528 34.1502 177.396 41.8212 178.659 42.881L180.528 34.1502Z" fill="black"/>
<path opacity="0.1" d="M186.439 35.0586C186.439 35.0586 182.751 41.3165 183.509 42.4268L186.439 35.0586Z" fill="black"/>
<path opacity="0.1" d="M194.016 41.1651C194.016 41.1651 190.076 42.2249 190.884 43.4866L194.016 41.1651Z" fill="black"/>
<path opacity="0.1" d="M197.754 47.6754C197.754 47.6754 194.218 49.3912 194.875 50.2996L197.754 47.6754Z" fill="black"/>
<path opacity="0.1" d="M163.692 55.6795C163.692 55.6795 186.278 46.5143 196.057 59.6863C196.057 59.6863 184.187 49.6034 163.692 55.6795Z" fill="black"/>
<path d="M155.53 130.987L158.678 127.807L167.575 136.594L164.428 139.775L156.245 131.694L155.53 130.987Z" fill="#53526B"/>
<path d="M134.884 110.598C134.884 110.598 148.659 111.769 161.478 126.185L156.135 131.585L134.884 110.598Z" fill="#DFE6F5"/>
<path d="M176.199 136.374C176.199 136.374 162.96 131.552 161.659 130.399C160.358 129.247 152.706 135.955 162.042 145.074C162.042 145.074 173.458 148.323 176.512 145.074C179.566 141.824 176.199 136.374 176.199 136.374Z" fill="#FDC2CC"/>
<path d="M421.258 228.525H418.566V289.035H421.258V228.525Z" fill="#535461"/>
<path d="M438.165 288.851L437.995 291.577L437.757 295.422L437.658 297.027L437.421 300.877L437.317 302.482L437.08 306.328L434.365 350.078C434.249 351.961 433.418 353.728 432.042 355.02C430.667 356.311 428.85 357.03 426.962 357.03H412.861C410.974 357.03 409.158 356.311 407.783 355.019C406.408 353.727 405.579 351.96 405.463 350.078L402.744 306.328L402.506 302.482L402.408 300.877L402.165 297.027L402.067 295.422L401.829 291.577L401.658 288.851C401.626 288.328 401.702 287.804 401.88 287.311C402.058 286.819 402.335 286.367 402.695 285.986C403.054 285.604 403.488 285.3 403.969 285.092C404.451 284.884 404.97 284.777 405.494 284.777H434.334C434.858 284.777 435.377 284.884 435.858 285.092C436.339 285.3 436.773 285.604 437.132 285.986C437.491 286.368 437.768 286.819 437.945 287.312C438.123 287.805 438.198 288.329 438.165 288.851Z" fill="#65617D"/>
<path d="M437.995 291.577L437.757 295.422H402.067L401.829 291.577H437.995Z" fill="#9D9CB5"/>
<path d="M437.658 297.027L437.42 300.877H402.408L402.165 297.027H437.658Z" fill="#9D9CB5"/>
<path d="M437.317 302.482L437.08 306.327H402.744L402.507 302.482H437.317Z" fill="#9D9CB5"/>
<path d="M397.72 251.206C413.388 262.529 419.912 280.24 419.912 280.24C419.912 280.24 401.032 279.593 385.364 268.27C369.696 256.948 363.173 239.236 363.173 239.236C363.173 239.236 382.052 239.883 397.72 251.206Z" fill="#EE4444"/>
<path d="M363.173 239.236C363.173 239.236 382.769 250.103 389.055 259.1C395.341 268.096 419.912 280.24 419.912 280.24" stroke="#535461" stroke-width="2" stroke-miterlimit="10"/>
<path d="M407.833 228.392C416.361 234.555 419.912 244.195 419.912 244.195C419.912 244.195 409.636 243.843 401.108 237.68C392.58 231.517 389.029 221.877 389.029 221.877C389.029 221.877 399.305 222.229 407.833 228.392Z" fill="#EE4444"/>
<path d="M389.029 221.877C389.029 221.877 399.695 227.792 403.117 232.688C406.538 237.585 419.912 244.195 419.912 244.195" stroke="#535461" stroke-width="2" stroke-miterlimit="10"/>
<path d="M432.304 243.704C422.509 254.46 420.437 268.513 420.437 268.513C420.437 268.513 434.246 265.128 444.042 254.373C453.837 243.617 455.909 229.563 455.909 229.563C455.909 229.563 442.1 232.948 432.304 243.704Z" fill="#EE4444"/>
<path d="M455.909 229.563C455.909 229.563 443.15 240.588 439.907 248.185C436.664 255.781 420.437 268.513 420.437 268.513" stroke="#535461" stroke-width="2" stroke-miterlimit="10"/>
<defs>
<linearGradient id="paint0_linear" x1="183.615" y1="356.943" x2="183.615" y2="26.6517" gradientUnits="userSpaceOnUse">
<stop stop-color="#808080" stop-opacity="0.25"/>
<stop offset="0.53514" stop-color="#808080" stop-opacity="0.12"/>
<stop offset="1" stop-color="#808080" stop-opacity="0.1"/>
</linearGradient>
</defs>
</svg>
