<svg width="506" height="223" viewBox="0 0 506 223" fill="none" xmlns="http://www.w3.org/2000/svg">
<g clip-path="url(#clip0)">
<path d="M150.536 183.611C148.797 197.26 142.4 209.748 135.576 221.777C135.35 222.187 135.118 222.59 134.88 223H63.9548C62.5204 222.627 61.1045 222.218 59.6945 221.777C51.6836 219.335 44.1208 215.609 37.2999 210.744C11.2064 191.918 1.16561 156.344 5.7008 124.467C8.5208 104.663 17.2002 84.4429 34.1014 73.7767C43.0251 68.1349 54.4878 66.3011 64.7605 68.3977C65.0293 68.4466 65.2978 68.5077 65.5723 68.5627C74.4105 70.5554 82.2843 75.5065 86.7646 83.4832C94.8214 97.8169 90.0239 115.574 86.0627 131.527C82.1135 147.481 79.9709 166.576 91.4339 178.342C87.6495 167.187 91.385 153.88 100.425 146.338C107.255 140.647 116.764 138.514 125.438 140.28C126.268 140.457 127.086 140.659 127.892 140.904C129.839 141.475 131.716 142.262 133.489 143.251C147.008 150.812 152.484 168.226 150.536 183.611Z" fill="#F2F2F2"/>
<path d="M108.482 221.777C110.447 222.236 112.418 222.639 114.402 223H103.678C102.274 222.621 100.876 222.218 99.4909 221.777C96.445 220.824 93.446 219.73 90.4939 218.495C78.6527 213.52 67.7453 206.05 59.493 196.111C55.4571 191.296 52.1614 185.905 49.7148 180.115C47.0618 173.571 45.3758 166.675 44.7099 159.644C43.2144 145.219 44.7403 130.396 47.5907 116.228C50.5323 101.543 55.2806 87.2794 61.7271 73.7645C62.5023 72.1447 63.3039 70.5351 64.1319 68.9356C64.1889 68.804 64.2751 68.6871 64.384 68.5938C64.493 68.5006 64.6217 68.4335 64.7605 68.3977C65.0422 68.343 65.3342 68.4024 65.5723 68.5628C65.8582 68.727 66.0701 68.9949 66.1644 69.3111C66.2587 69.6273 66.2281 69.9677 66.079 70.262C59.4324 83.2423 54.394 96.9871 51.0759 111.191C47.8288 125.048 45.9855 139.547 46.6141 153.795C47.2122 167.108 50.6855 180.201 58.5652 191.087C65.7615 201.026 75.6983 208.862 86.6913 214.198C93.6492 217.532 100.958 220.074 108.482 221.777Z" fill="white"/>
<path d="M132.018 223H128.856C128.502 222.597 128.16 222.187 127.824 221.777C120.623 213.015 115.744 202.575 113.639 191.423C111.083 177.506 113.072 163.135 119.31 150.439C121.05 146.879 123.101 143.479 125.438 140.28C126.268 140.457 127.086 140.659 127.891 140.904C121.744 149.06 117.609 158.556 115.824 168.617C114.232 178.045 114.761 187.71 117.374 196.907C119.986 206.104 124.616 214.601 130.925 221.777C131.279 222.187 131.645 222.597 132.018 223Z" fill="white"/>
<path d="M416.842 212.605C417.301 216.207 418.99 219.503 420.791 222.677C420.85 222.785 420.911 222.892 420.974 223H439.693C440.071 222.902 440.445 222.793 440.817 222.677C442.931 222.033 444.927 221.049 446.727 219.766C453.614 214.797 456.264 205.408 455.067 196.995C454.323 191.769 452.032 186.432 447.572 183.617C445.149 182.14 442.26 181.633 439.48 182.198C439.409 182.211 439.338 182.227 439.266 182.241C438.109 182.465 437.012 182.932 436.048 183.611C435.084 184.289 434.275 185.165 433.673 186.179C431.547 189.962 432.813 194.648 433.858 198.859C434.9 203.069 435.466 208.109 432.441 211.214C432.884 209.915 432.974 208.522 432.701 207.177C432.429 205.832 431.804 204.584 430.89 203.561C429.976 202.538 428.807 201.777 427.502 201.357C426.197 200.936 424.804 200.871 423.466 201.169C423.247 201.216 423.031 201.269 422.819 201.333C422.305 201.484 421.809 201.692 421.342 201.953C417.773 203.948 416.328 208.544 416.842 212.605Z" fill="#F2F2F2"/>
<path d="M427.941 222.677C427.423 222.798 426.902 222.905 426.379 223H429.209C429.58 222.9 429.949 222.794 430.314 222.677C431.118 222.426 431.909 222.137 432.689 221.811C435.849 220.526 438.655 218.5 440.87 215.904C441.935 214.633 442.805 213.21 443.451 211.682C444.151 209.955 444.596 208.135 444.772 206.279C445.093 202.443 444.837 198.581 444.012 194.821C443.235 190.945 441.982 187.181 440.281 183.614C440.076 183.187 439.865 182.762 439.646 182.34C439.631 182.305 439.608 182.274 439.579 182.249C439.551 182.225 439.517 182.207 439.48 182.198C439.406 182.183 439.329 182.199 439.266 182.241C439.19 182.285 439.134 182.355 439.11 182.439C439.085 182.522 439.093 182.612 439.132 182.69C440.886 186.115 442.216 189.743 443.092 193.492C443.994 197.168 444.39 200.951 444.269 204.736C444.205 208.255 443.108 211.678 441.115 214.578C439.177 217.189 436.628 219.284 433.692 220.677C431.856 221.557 429.927 222.228 427.941 222.677Z" fill="white"/>
<path d="M421.73 223H422.564C422.658 222.894 422.748 222.785 422.836 222.677C424.737 220.365 426.025 217.609 426.58 214.666C427.255 210.993 426.73 207.201 425.084 203.85C424.624 202.91 424.083 202.013 423.466 201.169C423.247 201.215 423.031 201.269 422.819 201.333C424.441 203.486 425.532 205.992 426.003 208.647C426.424 211.136 426.284 213.686 425.594 216.114C424.905 218.541 423.683 220.783 422.018 222.677C421.925 222.785 421.828 222.894 421.73 223Z" fill="white"/>
<path d="M248.123 129.895H189.539L188.918 111.856C188.891 111.074 189.033 110.296 189.336 109.574C189.638 108.853 190.093 108.206 190.669 107.677C191.245 107.149 191.929 106.751 192.673 106.513C193.417 106.274 194.204 106.2 194.979 106.295L229.071 110.475H229.075C234.13 110.489 238.972 112.508 242.543 116.091C246.113 119.674 248.12 124.528 248.123 129.589V129.895Z" fill="#EE4444"/>
<path d="M222.012 65.91H181.152C180.609 65.9098 180.071 66.0169 179.569 66.2251C179.066 66.4333 178.61 66.7385 178.226 67.1233C177.842 67.5081 177.537 67.9649 177.329 68.4677C177.121 68.9705 177.014 69.5094 177.014 70.0536V110.972C177.014 111.516 177.121 112.055 177.329 112.557C177.537 113.06 177.842 113.517 178.226 113.902C178.61 114.287 179.066 114.592 179.569 114.8C180.071 115.008 180.609 115.115 181.152 115.115H222.012C222.555 115.115 223.093 115.008 223.595 114.8C224.098 114.592 224.554 114.287 224.938 113.902C225.322 113.517 225.627 113.06 225.835 112.557C226.043 112.055 226.15 111.516 226.15 110.972V70.0536C226.15 69.5094 226.043 68.9705 225.835 68.4677C225.627 67.9649 225.322 67.5081 224.938 67.1233C224.554 66.7385 224.098 66.4333 223.595 66.2251C223.093 66.0169 222.555 65.9098 222.012 65.91Z" fill="#CCCCCC"/>
<path d="M212.81 96.5069L193.518 100.269C192.374 100.491 191.188 100.249 190.222 99.5967C189.255 98.9443 188.586 97.9347 188.362 96.7892L186.879 89.1632C186.658 88.0173 186.899 86.8301 187.551 85.8622C188.202 84.8943 189.211 84.2247 190.354 84.0003L209.646 80.2381C210.79 80.0163 211.976 80.2581 212.942 80.9105C213.909 81.5629 214.578 82.5725 214.802 83.718L216.285 91.344C216.506 92.4899 216.265 93.6771 215.613 94.645C214.962 95.6129 213.953 96.2825 212.81 96.5069Z" fill="#3F3D56"/>
<path d="M208.95 87.4975L194.227 90.3687C193.958 90.4212 193.679 90.3644 193.451 90.2109C193.224 90.0573 193.067 89.8195 193.014 89.5499C192.962 89.2802 193.019 89.0007 193.172 88.7729C193.325 88.545 193.563 88.3876 193.832 88.335L208.554 85.4639C208.824 85.4114 209.103 85.4682 209.33 85.6217C209.558 85.7753 209.715 86.0131 209.768 86.2827C209.82 86.5524 209.763 86.8319 209.61 87.0597C209.457 87.2875 209.219 87.445 208.95 87.4975Z" fill="white"/>
<path d="M206.088 91.7494L198.473 93.2344C198.204 93.2869 197.925 93.2302 197.697 93.0766C197.47 92.9231 197.312 92.6853 197.26 92.4156C197.208 92.1459 197.264 91.8665 197.418 91.6386C197.571 91.4108 197.808 91.2533 198.078 91.2008L205.693 89.7158C205.826 89.6898 205.963 89.6903 206.096 89.7174C206.23 89.7445 206.356 89.7975 206.469 89.8735C206.581 89.9496 206.678 90.0471 206.753 90.1605C206.828 90.2739 206.88 90.401 206.906 90.5345C206.932 90.6681 206.931 90.8054 206.904 90.9387C206.877 91.072 206.824 91.1987 206.748 91.3115C206.672 91.4243 206.575 91.5211 206.462 91.5962C206.348 91.6713 206.222 91.7234 206.088 91.7494Z" fill="white"/>
<path d="M226.15 70.0536V75.4921H177.014V70.0536C177.014 69.5094 177.121 68.9705 177.329 68.4677C177.537 67.9649 177.842 67.5081 178.226 67.1233C178.61 66.7385 179.066 66.4333 179.569 66.2251C180.071 66.0169 180.609 65.9098 181.152 65.91H222.012C222.555 65.9098 223.093 66.0169 223.595 66.2251C224.097 66.4333 224.554 66.7385 224.938 67.1233C225.322 67.5081 225.627 67.9649 225.835 68.4677C226.043 68.9705 226.15 69.5094 226.15 70.0536Z" fill="#B3B3B3"/>
<path d="M324.268 77.1951C323.984 76.2781 323.503 75.4346 322.859 74.7239C322.214 74.0132 321.422 73.4527 320.538 73.0817C319.654 72.7108 318.699 72.5386 317.741 72.5771C316.783 72.6156 315.846 72.8639 314.994 73.3046L258.781 53.1074L256.305 67.1705L312.339 82.6016C313.173 83.9852 314.485 85.0144 316.026 85.494C317.568 85.9737 319.231 85.8705 320.701 85.2041C322.172 84.5377 323.347 83.3543 324.004 81.8782C324.661 80.4021 324.755 78.7358 324.268 77.1951Z" fill="#FFB8B8"/>
<path opacity="0.2" d="M324.268 77.1951C323.984 76.2781 323.503 75.4346 322.859 74.7239C322.214 74.0132 321.422 73.4527 320.538 73.0817C319.654 72.7108 318.699 72.5386 317.741 72.5771C316.783 72.6156 315.846 72.8639 314.994 73.3046L258.781 53.1074L256.305 67.1705L312.339 82.6016C313.173 83.9852 314.485 85.0144 316.026 85.494C317.568 85.9737 319.231 85.8705 320.701 85.2041C322.172 84.5377 323.347 83.3543 324.004 81.8782C324.661 80.4021 324.755 78.7358 324.268 77.1951Z" fill="black"/>
<path d="M268.758 55.67L263.45 69.5577C263.299 69.9528 263.065 70.3107 262.763 70.607C262.461 70.9032 262.1 71.1309 261.702 71.2746C261.305 71.4182 260.881 71.4743 260.46 71.4392C260.039 71.4041 259.63 71.2785 259.262 71.071L246.361 63.7994C244.347 63.014 242.726 61.4608 241.854 59.4803C240.981 57.4999 240.928 55.2538 241.707 53.2345C242.486 51.2152 244.032 49.5874 246.007 48.7081C247.982 47.8288 250.225 47.7696 252.244 48.5436L266.65 51.7433C267.062 51.835 267.45 52.0147 267.787 52.2701C268.124 52.5255 268.402 52.8506 268.602 53.2232C268.802 53.5959 268.92 54.0073 268.946 54.4295C268.973 54.8518 268.909 55.2749 268.758 55.67Z" fill="#EE4444"/>
<path d="M328.692 90.0541L308.55 99.2228L311.194 109.193C316.301 128.446 317.656 148.503 315.186 168.27L329.913 171.35L342.121 140.176L337.848 104.724L328.692 90.0541Z" fill="#EE4444"/>
<path d="M368.214 136.203C354.98 136.203 344.195 145.838 343.672 157.902H392.757C392.233 145.838 381.448 136.203 368.214 136.203Z" fill="#3F3D56"/>
<path d="M357.912 138.282C357.223 83.8214 326.251 88.8317 326.251 88.8317C326.251 88.8317 326.83 105.784 327.109 106.311C346.845 143.706 314.272 187.548 272.81 179.482C272.028 179.33 271.277 179.176 270.557 179.019C265.303 177.921 260.664 174.86 257.585 170.458C254.505 166.057 253.215 160.646 253.977 155.326C258.061 122.48 237.747 123.061 237.747 123.061H208.042L192.616 109.158C192.071 108.667 191.415 108.318 190.704 108.14C189.994 107.962 189.25 107.961 188.539 108.137C187.828 108.313 187.171 108.661 186.625 109.15C186.079 109.639 185.661 110.255 185.408 110.944L183.423 116.338C183.423 116.338 154.125 119.394 156.567 148.123H165.625C165.603 148.939 165.636 149.756 165.723 150.567L233.322 150.017C237.284 149.985 240.782 153.2 240.798 157.168C240.803 158.135 240.612 159.092 240.238 159.982C239.864 160.873 239.315 161.679 238.623 162.352C237.931 163.025 237.111 163.551 236.211 163.9C235.311 164.248 234.35 164.411 233.386 164.379L222.487 164.015C219.13 178.99 227.37 189.076 236.45 195.418C244.998 201.302 255.141 204.422 265.514 204.357H295.122C333.575 204.357 340.289 171.961 340.289 171.961C360.432 163.404 357.912 138.282 357.912 138.282Z" fill="#3F3D56"/>
<path d="M366.383 222.083C385.345 222.083 400.716 206.69 400.716 187.701C400.716 168.712 385.345 153.318 366.383 153.318C347.421 153.318 332.049 168.712 332.049 187.701C332.049 206.69 347.421 222.083 366.383 222.083Z" fill="#3F3D56"/>
<path d="M366.383 196.128C371.03 196.128 374.798 192.355 374.798 187.701C374.798 183.046 371.03 179.273 366.383 179.273C361.735 179.273 357.968 183.046 357.968 187.701C357.968 192.355 361.735 196.128 366.383 196.128Z" fill="white"/>
<path d="M193.037 222.083C214.864 222.083 232.558 204.363 232.558 182.505C232.558 160.647 214.864 142.927 193.037 142.927C171.209 142.927 153.515 160.647 153.515 182.505C153.515 204.363 171.209 222.083 193.037 222.083Z" fill="#3F3D56"/>
<path d="M193.037 192.205C198.387 192.205 202.723 187.862 202.723 182.505C202.723 177.148 198.387 172.804 193.037 172.804C187.687 172.804 183.35 177.148 183.35 182.505C183.35 187.862 187.687 192.205 193.037 192.205Z" fill="white"/>
<path d="M308.607 101.932L301.36 82.2196C300.982 81.1922 300.81 80.1004 300.854 79.0065C300.898 77.9126 301.156 76.838 301.614 75.8441C302.073 74.8502 302.722 73.9565 303.525 73.2139C304.329 72.4713 305.27 71.8944 306.296 71.5162L327.073 63.8566C328.878 63.1909 330.797 62.8878 332.719 62.9646C334.641 63.0414 336.529 63.4965 338.275 64.304C340.021 65.1116 341.592 66.2556 342.897 67.671C344.202 69.0863 345.215 70.7451 345.88 72.5528C346.479 74.1752 346.785 75.8916 346.784 77.6215C346.776 79.8181 346.28 81.9853 345.331 83.9657C344.382 85.946 343.004 87.6898 341.298 89.0701C340.066 90.0603 338.68 90.8426 337.196 91.3862L308.607 101.932Z" fill="#3F3D56"/>
<path d="M346.479 77.6214C346.477 79.7732 345.994 81.8973 345.064 83.8373C344.134 85.7773 342.782 87.4839 341.107 88.8316C338.537 88.1528 336.146 86.9216 334.099 85.2236C332.052 83.5256 330.399 81.4016 329.255 78.9992C328.11 76.5968 327.502 73.9737 327.473 71.3122C327.443 68.6507 327.993 66.0146 329.083 63.5872C331.177 63.1313 333.346 63.1507 335.431 63.6441C337.516 64.1374 339.464 65.0921 341.132 66.4381C342.801 67.7842 344.147 69.4873 345.072 71.4225C345.997 73.3577 346.478 75.4759 346.479 77.6214Z" fill="#EE4444"/>
<path d="M161.755 152.096C166.474 152.096 170.3 147.443 170.3 141.704C170.3 135.966 166.474 131.313 161.755 131.313C157.036 131.313 153.21 135.966 153.21 141.704C153.21 147.443 157.036 152.096 161.755 152.096Z" fill="#EE4444"/>
<path d="M274.712 178.487H282.195L285.755 159.051L274.71 159.052L274.712 178.487Z" fill="#FFB8B8"/>
<path d="M272.803 176.04L287.539 176.039H287.54C288.773 176.039 289.995 176.283 291.134 176.755C292.274 177.228 293.309 177.921 294.181 178.794C295.053 179.667 295.745 180.704 296.217 181.845C296.689 182.986 296.932 184.209 296.932 185.444V185.75L272.803 185.751L272.803 176.04Z" fill="#2F2E41"/>
<path d="M283.397 170.51C283.31 170.51 283.223 170.505 283.135 170.497L272.779 169.742C272.36 169.703 271.956 169.568 271.597 169.348C271.239 169.128 270.935 168.828 270.711 168.472C270.486 168.116 270.346 167.713 270.301 167.294C270.257 166.876 270.309 166.452 270.454 166.057L284.313 134.874C284.412 134.596 284.453 134.301 284.432 134.006C284.412 133.712 284.33 133.425 284.193 133.163C284.057 132.899 283.866 132.666 283.634 132.481C283.401 132.295 283.132 132.161 282.844 132.088C276.327 130.382 259.606 125.839 245.131 120.524C238.93 118.247 235.024 114.956 233.522 110.743C231.543 105.189 234.471 100.123 234.597 99.9108L234.695 99.7443L248.316 100.984L263.081 102.242L295.439 119.618C298.151 121.086 300.21 123.524 301.208 126.444C302.205 129.365 302.067 132.555 300.822 135.379L285.904 168.879C285.688 169.365 285.336 169.777 284.892 170.066C284.447 170.355 283.928 170.509 283.397 170.51Z" fill="#2F2E41"/>
<path d="M250.684 39.2916C258.963 39.2916 265.675 32.5702 265.675 24.2788C265.675 15.9875 258.963 9.26599 250.684 9.26599C242.404 9.26599 235.692 15.9875 235.692 24.2788C235.692 32.5702 242.404 39.2916 250.684 39.2916Z" fill="#FFB8B8"/>
<path d="M270.439 180.32H277.922L281.482 160.885L270.438 160.885L270.439 180.32Z" fill="#FFB8B8"/>
<path d="M268.53 177.874L283.267 177.873H283.267C284.501 177.873 285.722 178.116 286.861 178.589C288.001 179.062 289.036 179.754 289.908 180.628C290.78 181.501 291.472 182.538 291.944 183.679C292.416 184.82 292.659 186.043 292.659 187.278V187.584L268.531 187.584L268.53 177.874Z" fill="#2F2E41"/>
<path d="M279.125 172.343C279.038 172.343 278.95 172.339 278.862 172.331L268.506 171.576C268.088 171.537 267.683 171.402 267.325 171.182C266.966 170.962 266.663 170.662 266.438 170.306C266.213 169.95 266.073 169.547 266.029 169.128C265.984 168.709 266.037 168.286 266.181 167.89L280.041 136.708C280.14 136.43 280.18 136.134 280.16 135.84C280.139 135.546 280.058 135.259 279.921 134.997C279.784 134.733 279.594 134.5 279.361 134.315C279.128 134.129 278.859 133.995 278.571 133.921C272.054 132.215 255.333 127.673 240.858 122.358C234.657 120.081 230.751 116.79 229.25 112.577C227.27 107.023 230.199 101.957 230.324 101.745L230.423 101.578L244.043 102.818L258.809 104.076L291.167 121.452C293.878 122.92 295.938 125.357 296.935 128.278C297.933 131.199 297.795 134.389 296.549 137.212L281.631 170.713C281.415 171.198 281.064 171.61 280.619 171.9C280.174 172.189 279.655 172.343 279.125 172.343Z" fill="#2F2E41"/>
<path d="M255.307 47.8045L239.438 42.3033C239.438 42.3033 229.475 49.9683 234.261 68.9833C236.76 78.7957 236.032 89.1534 232.186 98.5188C231.723 99.6775 231.189 100.807 230.587 101.9C230.587 101.9 248.288 123.293 264.768 107.401L258.359 76.533C258.359 76.533 268.43 56.0563 255.307 47.8045Z" fill="#EE4444"/>
<path d="M252.545 39.8022C250.411 36.6039 248.728 32.1692 251.077 29.1262C253.396 26.1225 257.969 26.565 261.521 25.2359C266.467 23.3846 269.336 17.5651 268.441 12.3535C267.546 7.14178 263.369 2.82145 258.392 1.05371C253.415 -0.714027 247.803 -0.139117 242.929 1.89654C236.93 4.40246 231.783 9.25 229.625 15.3906C227.467 21.5311 228.621 28.904 233.098 33.6238C237.897 38.6839 245.431 40.0324 252.399 39.9506" fill="#2F2E41"/>
<path d="M238.6 12.5207C235.911 14.7125 231.809 13.739 228.923 11.8154C226.037 9.89178 223.695 7.15266 220.573 5.64446C215.068 2.98558 208.412 4.75313 203.054 7.69831C197.696 10.6435 192.947 14.7123 187.287 17.0236C181.628 19.3348 174.406 19.449 170.121 15.0849C169.066 18.1447 168.98 21.4558 169.874 24.5665C170.768 27.6772 172.598 30.4359 175.116 32.4662C177.633 34.4966 180.715 35.6997 183.94 35.9115C187.165 36.1232 190.377 35.3332 193.138 33.6493C199.339 29.8667 202.764 21.9356 209.719 19.8478C213.568 18.6925 217.701 19.623 221.591 20.6309C225.48 21.6387 229.536 22.7277 233.462 21.8697C237.387 21.0117 241.059 17.4791 240.56 13.4866L238.6 12.5207Z" fill="#2F2E41"/>
<path d="M323.522 76.5836C323.127 75.7087 322.546 74.931 321.819 74.3054C321.092 73.6798 320.237 73.2214 319.314 72.9626C318.39 72.7037 317.422 72.6507 316.476 72.8073C315.53 72.9638 314.63 73.3262 313.84 73.8687L255.567 60.7715L254.843 75.033L312.351 83.4227C313.349 84.6927 314.777 85.5519 316.366 85.8374C317.955 86.123 319.592 85.8151 320.969 84.9721C322.346 84.1291 323.367 82.8096 323.837 81.2635C324.308 79.7175 324.195 78.0523 323.522 76.5836Z" fill="#FFB8B8"/>
<path d="M265.784 62.0816L262.228 76.519C262.126 76.9298 261.938 77.3139 261.675 77.6452C261.412 77.9765 261.081 78.2472 260.705 78.4388C260.328 78.6304 259.915 78.7385 259.492 78.7556C259.07 78.7728 258.649 78.6986 258.258 78.5382L244.56 72.9163C242.463 72.387 240.662 71.0462 239.551 69.1882C238.44 67.3302 238.11 65.1067 238.634 63.0056C239.158 60.9046 240.493 59.0975 242.346 57.981C244.199 56.8645 246.419 56.5298 248.518 57.0502L263.208 58.4454C263.629 58.4854 264.036 58.6158 264.402 58.8276C264.767 59.0395 265.083 59.3277 265.328 59.6728C265.572 60.0179 265.74 60.4117 265.818 60.8273C265.897 61.243 265.886 61.6708 265.784 62.0816V62.0816Z" fill="#EE4444"/>
<path d="M316.79 87.9148C319.15 87.9148 321.063 85.9991 321.063 83.6361C321.063 81.273 319.15 79.3574 316.79 79.3574C314.43 79.3574 312.517 81.273 312.517 83.6361C312.517 85.9991 314.43 87.9148 316.79 87.9148Z" fill="#EE4444"/>
<path d="M506 222.389C506 222.551 505.935 222.706 505.821 222.82C505.706 222.935 505.551 222.999 505.39 223H0.610374C0.448493 223 0.293241 222.936 0.178774 222.821C0.0643066 222.706 0 222.551 0 222.389C0 222.227 0.0643066 222.071 0.178774 221.957C0.293241 221.842 0.448493 221.777 0.610374 221.777H505.39C505.551 221.778 505.706 221.843 505.821 221.957C505.935 222.072 506 222.227 506 222.389Z" fill="#3F3D56"/>
</g>
<defs>
<clipPath id="clip0">
<rect width="506" height="223" fill="white"/>
</clipPath>
</defs>
</svg>
