<svg width="457" height="432" viewBox="0 0 457 432" fill="none" xmlns="http://www.w3.org/2000/svg">
<path d="M457 429.723H148.609V431.053H457V429.723Z" fill="#3F3D56"/>
<path d="M399.447 203.53C400.041 204.228 400.481 205.042 400.74 205.921C400.999 206.799 401.07 207.723 400.95 208.631C400.829 209.539 400.519 210.411 400.04 211.192C399.561 211.972 398.923 212.644 398.168 213.162L366.252 235.075L352.198 244.445C351.4 244.977 350.432 245.193 349.483 245.051C348.534 244.909 347.672 244.419 347.065 243.677C346.71 243.244 346.454 242.739 346.314 242.198C346.174 241.656 346.153 241.091 346.253 240.54C346.353 239.99 346.571 239.468 346.893 239.01C347.214 238.552 347.631 238.17 348.115 237.889L361.727 229.985L385.483 207.359L370.211 190.955L381.524 182.47L399.447 203.53Z" fill="#A0616A"/>
<path d="M324.395 409.861H316.588L311.951 345.377L331.748 344.811L324.395 409.861Z" fill="#A0616A"/>
<path d="M324.961 430.791C322.879 431.741 321.136 424.043 319.38 425.769C314.468 430.596 306.947 431.647 300.391 429.539L302.685 429.514C302.29 429.386 301.924 429.18 301.611 428.908C301.297 428.635 301.042 428.302 300.861 427.927C300.68 427.553 300.577 427.146 300.558 426.731C300.539 426.316 300.604 425.901 300.75 425.512C300.925 425.047 301.21 424.631 301.581 424.299C301.952 423.968 302.398 423.732 302.88 423.612L308.104 422.306L316.305 407.882L324.678 407.316C326.545 409.696 327.847 412.468 328.488 415.424C329.129 418.379 329.091 421.442 328.378 424.381C327.618 427.482 326.445 430.113 324.961 430.791Z" fill="#2F2E41"/>
<path d="M376.377 409.862H368.57L363.933 345.377L384.296 341.418L376.377 409.862Z" fill="#A0616A"/>
<path d="M376.943 430.791C374.861 431.741 373.118 424.043 371.362 425.769C366.45 430.596 358.929 431.647 352.373 429.539L354.667 429.514C354.272 429.386 353.906 429.18 353.593 428.908C353.279 428.635 353.024 428.301 352.843 427.927C352.662 427.553 352.559 427.146 352.54 426.731C352.521 426.316 352.586 425.901 352.732 425.512C352.907 425.047 353.192 424.63 353.563 424.299C353.934 423.968 354.38 423.732 354.862 423.612L360.086 422.306L368.287 407.882L377.226 406.75L377.452 407.12C379.18 409.905 380.294 413.026 380.72 416.276C381.145 419.526 380.873 422.829 379.921 425.965C379.178 428.347 378.166 430.232 376.943 430.791Z" fill="#2F2E41"/>
<path d="M385.229 183.929C378.05 184.928 373.08 188.86 371.055 196.703L357.858 172.336C357.076 170.788 356.878 169.009 357.3 167.326C357.722 165.643 358.737 164.169 360.157 163.173C361.665 162.117 363.521 161.677 365.343 161.943C367.165 162.21 368.816 163.163 369.958 164.608L385.229 183.929Z" fill="#EE4444"/>
<path d="M399.058 338.589C366.971 352.787 334.134 354.534 300.639 345.377C312.87 297.937 327.312 255.04 327.223 219.803L360.03 216.975L365.081 224.983C377.065 243.983 385.338 265.084 389.46 287.167L399.058 338.589Z" fill="#2F2E41"/>
<path d="M345.324 146.834C354.695 146.834 362.292 139.236 362.292 129.864C362.292 120.492 354.695 112.895 345.324 112.895C335.952 112.895 328.355 120.492 328.355 129.864C328.355 139.236 335.952 146.834 345.324 146.834Z" fill="#A0616A"/>
<path d="M363.989 159.844L343.061 160.975L339.667 142.308L356.636 139.481L363.989 159.844Z" fill="#A0616A"/>
<path d="M361.727 219.803L338.799 220.449L327.223 222.065C321.541 203.296 316.758 184.569 328.355 168.894L341.93 155.319L362.292 154.753L362.562 154.907C365.796 156.76 368.302 159.659 369.668 163.127C371.033 166.595 371.177 170.424 370.075 173.985C365.022 190.406 361.776 205.913 361.727 219.803Z" fill="#EE4444"/>
<path d="M326.658 272.408L325.236 291.846C325.159 292.887 324.71 293.866 323.969 294.602C323.229 295.338 322.247 295.781 321.206 295.85C320.605 295.89 320.004 295.805 319.438 295.599C318.873 295.394 318.357 295.073 317.922 294.657C317.488 294.241 317.145 293.738 316.916 293.182C316.686 292.626 316.575 292.029 316.589 291.427L317.042 272.408L331.183 218.672L331.749 185.864L347.586 185.298L346.455 223.197L326.658 272.408Z" fill="#A0616A"/>
<path d="M349.283 188.126C342.568 185.396 336.297 186.31 330.617 192.086L331.395 164.386C331.493 162.653 332.212 161.015 333.421 159.769C334.629 158.524 336.245 157.756 337.974 157.606C339.808 157.446 341.634 157.994 343.078 159.137C344.521 160.281 345.473 161.933 345.738 163.755L349.283 188.126Z" fill="#EE4444"/>
<path d="M381.241 205.379H329.203C341.343 173.232 345.257 143.326 329.203 117.703C329.479 110.007 339.349 103.335 347.015 104.072C356.067 104.943 368.233 111.596 369.928 120.531L381.241 205.379Z" fill="#2F2E41"/>
<path d="M215.399 102.659H213.025V37.6346C213.025 32.6923 212.052 27.7985 210.16 23.2324C208.269 18.6664 205.497 14.5176 202.003 11.0229C198.508 7.52818 194.359 4.75604 189.793 2.86473C185.228 0.97342 180.334 -1.48106e-05 175.392 1.69011e-10H37.6333C32.6912 -1.0913e-05 27.7975 0.973431 23.2317 2.86474C18.6658 4.75605 14.5171 7.52819 11.0226 11.0229C7.52799 14.5176 4.75594 18.6664 2.8647 23.2324C0.973453 27.7985 4.41347e-05 32.6923 4.95911e-05 37.6346V394.365C4.56937e-05 399.308 0.973452 404.202 2.8647 408.768C4.75594 413.334 7.52799 417.482 11.0226 420.977C14.5171 424.472 18.6658 427.244 23.2317 429.135C27.7975 431.027 32.6912 432 37.6333 432H175.392C180.334 432 185.227 431.027 189.793 429.135C194.359 427.244 198.508 424.472 202.003 420.977C205.497 417.482 208.269 413.334 210.16 408.768C212.052 404.202 213.025 399.308 213.025 394.365V148.945H215.399V102.659Z" fill="#3F3D56"/>
<path d="M176.91 9.79126H158.928C159.755 11.8187 160.071 14.0185 159.847 16.1967C159.624 18.3749 158.868 20.4648 157.647 22.2822C156.426 24.0995 154.776 25.5887 152.844 26.6184C150.911 27.648 148.755 28.1867 146.566 28.1869H67.6458C65.4562 28.1867 63.3003 27.648 61.3679 26.6184C59.4356 25.5887 57.7861 24.0996 56.5647 22.2822C55.3434 20.4648 54.5878 18.3749 54.3643 16.1967C54.1409 14.0185 54.4566 11.8187 55.2835 9.79126H38.4883C34.7976 9.79126 31.1431 10.5182 27.7333 11.9306C24.3236 13.343 21.2254 15.4132 18.6157 18.023C16.006 20.6328 13.9359 23.7311 12.5235 27.1409C11.1112 30.5508 10.3842 34.2055 10.3842 37.8963V394.104C10.3842 397.795 11.1111 401.449 12.5235 404.859C13.9359 408.269 16.006 411.367 18.6157 413.977C21.2254 416.587 24.3236 418.657 27.7333 420.069C31.1431 421.482 34.7976 422.209 38.4883 422.209H176.91C180.601 422.209 184.255 421.482 187.665 420.069C191.075 418.657 194.173 416.587 196.783 413.977C199.393 411.367 201.463 408.269 202.875 404.859C204.287 401.449 205.014 397.795 205.014 394.104V37.8963C205.014 30.4423 202.053 23.2937 196.783 18.023C191.512 12.7523 184.364 9.79125 176.91 9.79126Z" fill="white"/>
<path d="M180.708 65.4333H34.6907V190.68H180.708V65.4333Z" fill="#E6E6E6"/>
<path d="M78.021 216.798C83.9217 216.798 88.7052 212.015 88.7052 206.114C88.7052 200.213 83.9217 195.429 78.021 195.429C72.1203 195.429 67.3368 200.213 67.3368 206.114C67.3368 212.015 72.1203 216.798 78.021 216.798Z" fill="#EE4444"/>
<path d="M83.3633 205.223H78.9115V200.771H77.1309V205.223H72.6791V207.004H77.1309V211.456H78.9115V207.004H83.3633V205.223Z" fill="white"/>
<path d="M134.41 216.798C140.31 216.798 145.094 212.015 145.094 206.114C145.094 200.213 140.31 195.429 134.41 195.429C128.509 195.429 123.726 200.213 123.726 206.114C123.726 212.015 128.509 216.798 134.41 216.798Z" fill="#EE4444"/>
<path d="M139.752 207.004V205.223H129.068V207.004H139.752Z" fill="white"/>
<path d="M113.145 81.0535H101.606C101.2 81.0535 100.811 81.2147 100.524 81.5016C100.237 81.7885 100.076 82.1776 100.076 82.5834V87.6484C100.076 88.0541 100.237 88.4433 100.524 88.7302C100.811 89.0171 101.2 89.1783 101.606 89.1783H103.518V96.7674H111.233V89.1783H113.145C113.551 89.1783 113.94 89.0171 114.227 88.7302C114.514 88.4433 114.675 88.0541 114.675 87.6484V82.5834C114.675 82.1776 114.514 81.7885 114.227 81.5016C113.94 81.2147 113.551 81.0535 113.145 81.0535Z" fill="#EE4444"/>
<path d="M124.703 127.408C117.636 117.067 114.023 104.755 114.382 92.2347C114.389 91.9458 114.295 91.6636 114.117 91.436C113.939 91.2084 113.687 91.0494 113.406 90.986V88.7975H101.219V90.9557H101.051C100.887 90.9559 100.724 90.9884 100.572 91.0515C100.421 91.1145 100.283 91.2068 100.167 91.3231C100.051 91.4393 99.9592 91.5773 99.8965 91.7291C99.8339 91.8809 99.8018 92.0436 99.802 92.2078C99.802 92.2382 99.8031 92.2685 99.8054 92.2988C100.765 105.683 97.5235 117.685 90.0794 128.306C89.6511 128.916 89.4322 129.649 89.4557 130.395L90.7883 171.616C90.8203 172.535 91.2062 173.407 91.8654 174.049C92.5246 174.69 93.4061 175.053 94.3261 175.06H121.891C122.821 175.053 123.712 174.682 124.373 174.027C125.034 173.373 125.414 172.486 125.431 171.555L125.944 131.533C125.959 130.064 125.526 128.625 124.703 127.408Z" fill="#3F3D56"/>
<path opacity="0.2" d="M110.74 82.7039C110.74 83.5793 110.392 84.4188 109.773 85.0378C109.154 85.6568 108.314 86.0046 107.439 86.0046C106.564 86.0046 105.724 85.6568 105.105 85.0378C104.486 84.4188 104.138 83.5793 104.138 82.7039" fill="black"/>
<path d="M120.339 141.101H117.001C116.683 139.033 115.634 137.147 114.046 135.785C112.458 134.423 110.435 133.674 108.343 133.674C106.251 133.674 104.227 134.423 102.639 135.785C101.051 137.147 100.003 139.033 99.6844 141.101H96.3464C95.9912 141.101 95.6402 141.178 95.3175 141.326C94.9948 141.474 94.7081 141.691 94.4768 141.96C94.2456 142.23 94.0753 142.546 93.9778 142.888C93.8802 143.229 93.8577 143.588 93.9117 143.939L97.5374 167.507H118.356L122.76 144.018C122.827 143.663 122.814 143.296 122.724 142.946C122.633 142.596 122.466 142.27 122.235 141.991C122.004 141.713 121.714 141.488 121.386 141.335C121.059 141.181 120.701 141.101 120.339 141.101V141.101Z" fill="#EE4444"/>
<path d="M180.708 241.729H34.6907V366.976H180.708V241.729Z" fill="#E6E6E6"/>
<path d="M78.021 393.094C83.9217 393.094 88.7052 388.31 88.7052 382.409C88.7052 376.508 83.9217 371.725 78.021 371.725C72.1203 371.725 67.3368 376.508 67.3368 382.409C67.3368 388.31 72.1203 393.094 78.021 393.094Z" fill="#EE4444"/>
<path d="M83.3633 381.519H78.9115V377.067H77.1309V381.519H72.6791V383.3H77.1309V387.752H78.9115V383.3H83.3633V381.519Z" fill="white"/>
<path d="M134.41 393.094C140.31 393.094 145.094 388.31 145.094 382.409C145.094 376.508 140.31 371.725 134.41 371.725C128.509 371.725 123.726 376.508 123.726 382.409C123.726 388.31 128.509 393.094 134.41 393.094Z" fill="#EE4444"/>
<path d="M139.752 383.3V381.519H129.068V383.3H139.752Z" fill="white"/>
<path d="M136.444 330.706L136.525 330.706C139.274 330.729 141.967 329.923 144.251 328.393C146.535 326.863 148.305 324.68 149.33 322.129C152.56 313.962 153.316 305.025 151.505 296.431C149.693 287.837 145.394 279.966 139.142 273.798C132.89 267.629 124.962 263.437 116.345 261.741C107.727 260.046 98.8018 260.922 90.6793 264.262C82.5567 267.602 75.5961 273.258 70.664 280.525C65.7319 287.792 63.0463 296.349 62.9416 305.131C62.8369 313.913 65.3177 322.532 70.0752 329.915C74.8326 337.297 81.6565 343.117 89.6971 346.65C92.1961 347.757 94.9712 348.082 97.6585 347.584C100.346 347.085 102.82 345.787 104.756 343.858C108.909 339.683 113.847 336.371 119.286 334.114C124.724 331.857 130.556 330.699 136.444 330.706Z" fill="white"/>
<path d="M113.448 317.154C121.613 317.154 128.231 310.536 128.231 302.371C128.231 294.206 121.613 287.587 113.448 287.587C105.284 287.587 98.6648 294.206 98.6648 302.371C98.6648 310.536 105.284 317.154 113.448 317.154Z" fill="#F9A825"/>
</svg>
