<svg width="526" height="371" viewBox="0 0 526 371" fill="none" xmlns="http://www.w3.org/2000/svg">
<g clip-path="url(#clip0)">
<path d="M268.639 370.214C284.459 370.214 297.284 357.378 297.284 341.544C297.284 325.71 284.459 312.874 268.639 312.874C252.818 312.874 239.994 325.71 239.994 341.544C239.994 357.378 252.818 370.214 268.639 370.214Z" fill="#EE4444"/>
<path d="M439.768 368.603C455.793 363.786 472.83 358.763 485.54 347.312C496.897 337.079 504.564 321.454 499.859 306.108C495.164 290.793 481.1 280.581 466.58 275.503C458.344 272.622 449.728 271.024 441.116 269.768C431.753 268.404 422.349 267.286 412.95 266.21C374.89 261.853 336.687 259.191 298.341 258.225C279.42 257.748 260.502 257.76 241.578 258.034C224.678 258.28 206.879 258.274 191.2 251.085C179.008 245.494 167.943 235.323 164.546 221.958C160.624 206.529 167.857 190.818 178.233 179.644C183.702 173.754 190.094 168.797 196.688 164.239C203.842 159.294 211.245 154.699 218.808 150.41C233.704 141.966 249.278 134.781 265.367 128.927C273.304 126.039 281.359 123.547 289.484 121.248C296.344 119.306 303.226 117.362 309.857 114.717C322.675 109.604 334.866 100.944 338.125 86.7449C341.214 73.2879 336.006 58.6793 326.876 48.6823C316.312 37.1166 300.385 32.0465 285.116 31.2262C267.973 30.3052 251.225 34.5993 235.113 40.0489C217.928 45.8614 201.113 52.5447 183.565 57.2528C166.163 61.9168 148.425 65.2169 130.511 67.123C121.742 68.0576 112.708 69.1129 103.886 68.3974C96.4927 67.7977 89.1372 65.6216 83.6885 60.3701C79.0165 55.8672 76.2334 49.6787 77.1902 43.148C77.364 41.9619 79.1644 42.4662 78.9917 43.6451C77.8269 51.5948 83.2261 58.9202 89.8795 62.6727C97.569 67.0095 106.926 67.0154 115.487 66.5194C134.05 65.3973 152.487 62.7298 170.607 58.5445C188.412 54.4742 205.582 48.6557 222.732 42.4401C239.02 36.5369 255.672 30.7754 273.073 29.4968C288.171 28.3873 304.054 30.5889 317.208 38.4861C328.768 45.4266 337.269 57.0013 339.977 70.2834C342.624 83.2625 338.959 96.3261 329.142 105.383C318.978 114.761 305.042 118.77 292.055 122.463C275.582 127.146 259.463 132.621 243.861 139.729C228.046 146.914 212.878 155.448 198.526 165.238C184.673 174.713 171.001 186.634 166.62 203.537C164.579 211.411 164.956 219.762 168.371 227.199C171.407 233.812 176.408 239.374 182.234 243.665C196.133 253.901 213.652 256.003 230.441 256.212C249.298 256.447 268.156 255.81 287.019 256.12C325.461 256.751 363.825 259.093 402.11 263.146C411.703 264.162 421.285 265.285 430.854 266.516C439.461 267.622 448.097 268.722 456.559 270.688C471.605 274.183 486.246 280.904 495.598 293.672C499.749 299.207 502.32 305.765 503.038 312.648C503.693 319.83 501.936 327.026 498.691 333.415C491.51 347.557 478.058 356.552 463.773 362.462C456.122 365.627 448.185 368.025 440.264 370.406C439.11 370.753 438.617 368.949 439.768 368.603L439.768 368.603Z" fill="#F2F2F2"/>
<path d="M78.3965 58.2744C86.6506 58.2744 93.3419 51.5774 93.3419 43.3163C93.3419 35.0551 86.6506 28.3582 78.3965 28.3582C70.1424 28.3582 63.4511 35.0551 63.4511 43.3163C63.4511 51.5774 70.1424 58.2744 78.3965 58.2744Z" fill="#F2F2F2"/>
<path d="M182.08 86.6326C190.334 86.6326 197.026 79.9356 197.026 71.6744C197.026 63.4133 190.334 56.7163 182.08 56.7163C173.826 56.7163 167.135 63.4133 167.135 71.6744C167.135 79.9356 173.826 86.6326 182.08 86.6326Z" fill="#F2F2F2"/>
<path d="M269.884 29.9163C278.138 29.9163 284.83 23.2193 284.83 14.9581C284.83 6.69698 278.138 0 269.884 0C261.63 0 254.939 6.69698 254.939 14.9581C254.939 23.2193 261.63 29.9163 269.884 29.9163Z" fill="#F2F2F2"/>
<path d="M324.684 93.4883C332.938 93.4883 339.629 86.7913 339.629 78.5302C339.629 70.269 332.938 63.572 324.684 63.572C316.43 63.572 309.739 70.269 309.739 78.5302C309.739 86.7913 316.43 93.4883 324.684 93.4883Z" fill="#F2F2F2"/>
<path d="M250.58 167.032C258.834 167.032 265.525 160.335 265.525 152.074C265.525 143.813 258.834 137.116 250.58 137.116C242.326 137.116 235.634 143.813 235.634 152.074C235.634 160.335 242.326 167.032 250.58 167.032Z" fill="#F2F2F2"/>
<path d="M156.548 202.558C164.803 202.558 171.494 195.861 171.494 187.6C171.494 179.339 164.803 172.642 156.548 172.642C148.294 172.642 141.603 179.339 141.603 187.6C141.603 195.861 148.294 202.558 156.548 202.558Z" fill="#F2F2F2"/>
<path d="M256.184 258.028C264.438 258.028 271.13 251.331 271.13 243.07C271.13 234.809 264.438 228.112 256.184 228.112C247.93 228.112 241.239 234.809 241.239 243.07C241.239 251.331 247.93 258.028 256.184 258.028Z" fill="#F2F2F2"/>
<path d="M363.293 289.19C371.547 289.19 378.238 282.493 378.238 274.232C378.238 265.971 371.547 259.274 363.293 259.274C355.039 259.274 348.348 265.971 348.348 274.232C348.348 282.493 355.039 289.19 363.293 289.19Z" fill="#F2F2F2"/>
<path d="M488.461 282.335C496.715 282.335 503.406 275.638 503.406 267.377C503.406 259.115 496.715 252.418 488.461 252.418C480.206 252.418 473.515 259.115 473.515 267.377C473.515 275.638 480.206 282.335 488.461 282.335Z" fill="#F2F2F2"/>
<path d="M265.57 42.3835C220.802 42.7 184.145 79.1119 183.509 123.916C183.503 124.329 183.501 127.238 183.501 131.042C183.501 136.62 185.715 141.969 189.656 145.913C193.597 149.858 198.941 152.074 204.514 152.074H204.514C207.277 152.074 210.012 151.528 212.564 150.469C215.116 149.41 217.435 147.858 219.387 145.902C221.34 143.946 222.888 141.624 223.943 139.068C224.999 136.513 225.541 133.775 225.538 131.01C225.536 128.422 225.535 126.631 225.535 126.521C225.533 119.597 227.333 112.791 230.756 106.774C234.18 100.757 239.11 95.7353 245.06 92.2033C251.011 88.6713 257.778 86.7506 264.695 86.63C271.613 86.5094 278.442 88.1932 284.512 91.5156C290.582 94.8381 295.684 99.6847 299.315 105.579C302.945 111.473 304.981 118.212 305.22 125.132C305.46 132.052 303.895 138.915 300.68 145.047C297.466 151.178 292.712 156.367 286.886 160.101L286.893 160.11C286.893 160.11 256.985 179.381 247.866 205.817L247.874 205.819C246.271 211.235 245.458 216.854 245.462 222.502C245.462 224.824 245.598 245.14 245.862 261.629C245.954 267.318 248.278 272.743 252.331 276.733C256.384 280.724 261.841 282.959 267.527 282.958H267.527C270.384 282.958 273.212 282.392 275.849 281.294C278.487 280.196 280.881 278.586 282.895 276.558C284.909 274.53 286.502 272.124 287.583 269.477C288.664 266.831 289.211 263.997 289.194 261.137C289.102 246.036 289.053 228.453 289.053 227.177C289.053 210.944 304.699 194.771 317.551 184.223C332.35 172.078 343 155.527 347.278 136.857C348.224 133.013 348.746 129.076 348.834 125.119C348.834 114.203 346.676 103.395 342.484 93.3184C338.292 83.2413 332.15 74.0941 324.41 66.4036C316.671 58.7131 307.487 52.6314 297.388 48.5089C287.29 44.3864 276.476 42.3047 265.57 42.3835Z" fill="#EE4444"/>
<path d="M525.259 371H0.74146C0.545183 371 0.357143 370.921 0.218554 370.782C0.0799658 370.643 0.00213623 370.454 0.00213623 370.258C0.00213623 370.062 0.0799658 369.873 0.218554 369.734C0.357143 369.595 0.545183 369.516 0.74146 369.516H525.259C525.455 369.516 525.644 369.594 525.783 369.733C525.922 369.872 526 370.061 526 370.258C526 370.455 525.922 370.644 525.783 370.783C525.644 370.922 525.455 371 525.259 371Z" fill="#3F3D56"/>
<path d="M391.35 170.146C401.668 170.146 410.032 161.775 410.032 151.449C410.032 141.122 401.668 132.751 391.35 132.751C381.033 132.751 372.669 141.122 372.669 151.449C372.669 161.775 381.033 170.146 391.35 170.146Z" fill="#2F2E41"/>
<path d="M356.829 362.815H349.195L345.562 333.343H356.83L356.829 362.815Z" fill="#A0616A"/>
<path d="M343.741 360.632H358.465V369.91H334.471C334.471 368.691 334.71 367.485 335.176 366.359C335.642 365.234 336.325 364.211 337.186 363.349C338.047 362.488 339.069 361.804 340.193 361.338C341.318 360.872 342.524 360.632 343.741 360.632Z" fill="#2F2E41"/>
<path d="M415.987 362.815H408.353L404.721 333.343H415.989L415.987 362.815Z" fill="#A0616A"/>
<path d="M402.9 360.632H417.624V369.91H393.63C393.63 368.691 393.869 367.485 394.335 366.359C394.801 365.234 395.484 364.211 396.345 363.349C397.206 362.488 398.228 361.804 399.352 361.338C400.477 360.872 401.683 360.632 402.9 360.632Z" fill="#2F2E41"/>
<path d="M388.511 170.255C396.958 170.255 403.806 163.402 403.806 154.948C403.806 146.493 396.958 139.64 388.511 139.64C380.064 139.64 373.217 146.493 373.217 154.948C373.217 163.402 380.064 170.255 388.511 170.255Z" fill="#A0616A"/>
<path d="M397.628 219.639L404.471 203.902C406.133 200.21 406.61 196.093 405.834 192.119C405.059 188.144 403.071 184.509 400.143 181.714C399.542 181.119 398.904 180.563 398.231 180.05C394.855 177.406 390.693 175.965 386.406 175.955C383.524 175.966 380.677 176.6 378.062 177.812C377.837 177.912 377.619 178.018 377.395 178.124C376.965 178.329 376.542 178.554 376.131 178.784C373.45 180.325 371.169 182.475 369.47 185.06C367.772 187.645 366.705 190.594 366.354 193.668L363.334 218.997C362.574 220.985 335.473 292.784 344.951 347.599C345.052 348.185 345.337 348.722 345.765 349.134C346.193 349.546 346.742 349.809 347.33 349.887L356.939 351.196C357.64 351.292 358.352 351.118 358.931 350.71C359.51 350.302 359.913 349.689 360.059 348.995L376.181 272.08C376.281 271.602 376.539 271.171 376.913 270.857C377.286 270.543 377.754 270.363 378.242 270.347C378.73 270.33 379.209 270.478 379.603 270.766C379.997 271.054 380.283 271.466 380.415 271.936L403.195 352.822C403.357 353.41 403.707 353.928 404.192 354.297C404.677 354.667 405.269 354.867 405.879 354.867C406.06 354.865 406.242 354.849 406.421 354.817L418.159 352.554C418.841 352.427 419.451 352.048 419.869 351.494C420.288 350.939 420.484 350.248 420.419 349.556C418.694 330.304 409.528 233.868 397.628 219.639Z" fill="#2F2E41"/>
<path d="M329.072 167.687C328.966 168.597 329.061 169.519 329.349 170.389C329.638 171.258 330.113 172.054 330.742 172.72C331.371 173.385 332.138 173.905 332.99 174.242C333.841 174.579 334.756 174.725 335.669 174.669L344.219 195.232L350.686 185.638L341.576 167.582C341.381 166.052 340.633 164.646 339.472 163.631C338.311 162.616 336.819 162.063 335.277 162.076C333.736 162.089 332.253 162.667 331.109 163.701C329.966 164.735 329.241 166.154 329.072 167.687L329.072 167.687Z" fill="#A0616A"/>
<path d="M387.663 240.344C388.572 240.235 389.446 239.928 390.224 239.445C391.002 238.961 391.664 238.313 392.164 237.546C392.665 236.779 392.991 235.911 393.12 235.004C393.249 234.097 393.177 233.172 392.911 232.296L410.898 219.183L400.069 215.125L384.648 228.198C383.206 228.744 382.015 229.8 381.299 231.167C380.584 232.533 380.394 234.115 380.766 235.612C381.137 237.109 382.045 238.417 383.316 239.29C384.587 240.162 386.134 240.537 387.663 240.344Z" fill="#A0616A"/>
<path d="M358.34 208.941C357.651 208.94 356.963 208.872 356.286 208.738C354.65 208.426 353.116 207.717 351.818 206.672C350.521 205.626 349.5 204.278 348.846 202.745L336.869 188.127C336.615 187.818 336.431 187.459 336.328 187.073C336.225 186.686 336.206 186.283 336.271 185.888C336.337 185.494 336.486 185.119 336.708 184.787C336.93 184.455 337.221 184.174 337.561 183.964L346.082 178.684C346.397 178.489 346.747 178.359 347.112 178.3C347.477 178.241 347.851 178.255 348.211 178.341C348.571 178.428 348.91 178.585 349.209 178.803C349.508 179.021 349.76 179.296 349.953 179.613L358.394 193.533L374.561 181.575C375.848 180.899 377.336 180.71 378.751 181.041C380.166 181.372 381.415 182.202 382.269 183.379C383.124 184.555 383.527 186.001 383.405 187.45C383.283 188.9 382.643 190.257 381.604 191.274L365.468 206.005C363.572 207.886 361.01 208.941 358.34 208.941Z" fill="#2F2E41"/>
<path d="M402.025 230.924C402.003 230.924 401.981 230.924 401.959 230.924C401.566 230.914 401.179 230.822 400.824 230.654C400.469 230.485 400.153 230.244 399.897 229.945L392.321 221.099C392.063 220.798 391.871 220.445 391.76 220.064C391.648 219.684 391.618 219.284 391.672 218.891C391.726 218.497 391.863 218.12 392.074 217.784C392.285 217.448 392.564 217.16 392.894 216.94L407.08 207.474L394.228 192.01C393.481 190.763 393.207 189.288 393.456 187.854C393.705 186.421 394.461 185.126 395.586 184.205C396.711 183.283 398.129 182.798 399.582 182.837C401.035 182.876 402.425 183.437 403.499 184.417L419.119 199.695C420.349 200.819 421.287 202.225 421.854 203.792C422.421 205.358 422.6 207.04 422.375 208.691C422.15 210.342 421.528 211.914 420.562 213.272C419.596 214.629 418.316 215.732 416.83 216.486L404.064 230.044C403.802 230.322 403.486 230.543 403.135 230.695C402.784 230.846 402.406 230.924 402.025 230.924Z" fill="#2F2E41"/>
<path d="M384.623 198.329C384.501 198.329 384.379 198.321 384.259 198.306C383.731 198.241 383.233 198.027 382.824 197.688C382.414 197.349 382.11 196.9 381.948 196.393L376.255 178.924C376.112 178.482 376.134 178.003 376.317 177.577C376.499 177.15 376.83 176.804 377.248 176.602L377.432 176.515C377.6 176.435 377.766 176.356 377.935 176.281C380.59 175.049 383.48 174.406 386.406 174.397C390.205 174.404 393.919 175.521 397.093 177.611C397.518 177.894 397.816 178.333 397.921 178.834C398.026 179.335 397.93 179.857 397.654 180.287L386.974 197.033C386.724 197.43 386.377 197.758 385.966 197.984C385.554 198.211 385.092 198.33 384.623 198.329Z" fill="#E6E6E6"/>
<path d="M406.079 143.101C409.455 143.101 412.192 140.362 412.192 136.983C412.192 133.604 409.455 130.865 406.079 130.865C402.703 130.865 399.966 133.604 399.966 136.983C399.966 140.362 402.703 143.101 406.079 143.101Z" fill="#2F2E41"/>
<path d="M385.123 130.258C380.829 130.258 376.711 131.965 373.675 135.004C370.638 138.043 368.932 142.165 368.932 146.462V153.318H377.357L381.387 146.462L382.596 153.318H408.164L401.314 146.462C401.314 142.165 399.608 138.043 396.572 135.004C393.535 131.965 389.417 130.258 385.123 130.258Z" fill="#2F2E41"/>
<path d="M409.221 132.792C409.897 130.676 411.297 128.867 413.174 127.682C415.051 126.497 417.285 126.012 419.484 126.313C423.38 126.965 426.46 130.099 428.295 133.6C430.131 137.1 430.978 141.018 432.212 144.773C433.446 148.529 435.196 152.304 438.31 154.735C441.425 157.166 446.205 157.826 449.264 155.325C448.914 157.931 447.755 160.361 445.95 162.272C444.145 164.183 441.785 165.477 439.205 165.972C436.624 166.467 433.954 166.137 431.571 165.03C429.188 163.922 427.213 162.093 425.926 159.801C424.312 156.926 423.895 153.558 423.416 150.295C422.938 147.033 422.316 143.658 420.389 140.984C418.462 138.31 414.854 136.563 411.793 137.781L409.221 132.792Z" fill="#2F2E41"/>
<path d="M210.448 142.126C204.874 142.126 199.53 139.909 195.589 135.965C191.649 132.021 189.435 126.672 189.434 121.094C189.434 117.29 189.437 114.381 189.442 113.967C189.62 100.937 192.898 88.1371 199.007 76.6289C188.971 90.3797 183.452 106.912 183.215 123.939C183.209 124.353 183.207 127.262 183.207 131.066C183.207 136.644 185.421 141.993 189.362 145.937C193.303 149.881 198.647 152.098 204.22 152.098C208.8 152.097 213.254 150.599 216.905 147.833C220.557 145.066 223.206 141.183 224.451 136.772C220.604 140.225 215.616 142.132 210.448 142.126Z" fill="#3F3D56"/>
<path d="M266.995 86.7006C273.438 87.0085 279.71 88.8769 285.272 92.1453C290.834 95.4136 295.521 99.9843 298.93 105.465C302.339 110.945 304.367 117.172 304.842 123.61C305.317 130.048 304.223 136.506 301.655 142.428C305.37 138.062 308.1 132.945 309.66 127.427C311.219 121.909 311.572 116.12 310.693 110.453C309.815 104.786 307.726 99.376 304.568 94.5907C301.411 89.8053 297.26 85.7576 292.398 82.7234C287.537 79.6892 282.078 77.7399 276.396 77.0085C270.713 76.277 264.939 76.7805 259.468 78.4847C253.998 80.1889 248.958 83.0536 244.694 86.8837C240.43 90.7138 237.041 95.4191 234.758 100.679C238.704 96.0339 243.662 92.3579 249.251 89.9344C254.84 87.5108 260.911 86.4044 266.995 86.7006Z" fill="#3F3D56"/>
<path d="M273.46 273.01C267.775 273.011 262.317 270.776 258.264 266.785C254.211 262.795 251.887 257.37 251.795 251.681C251.532 235.192 251.395 214.876 251.395 212.554C251.391 206.906 252.204 201.287 253.807 195.871L253.8 195.869C254.746 193.151 255.89 190.505 257.221 187.953C253.135 193.403 249.883 199.432 247.572 205.841L247.58 205.843C245.977 211.259 245.164 216.878 245.168 222.526C245.168 224.848 245.304 245.164 245.568 261.653C245.66 267.342 247.983 272.767 252.036 276.757C256.089 280.748 261.547 282.983 267.233 282.982C271.92 282.981 276.481 281.459 280.231 278.644C283.982 275.83 286.719 271.874 288.033 267.37C284.049 271.006 278.851 273.017 273.46 273.01Z" fill="#3F3D56"/>
<path d="M78.8002 363.099L86.4342 363.099L90.0665 333.626L78.7983 333.627L78.8002 363.099Z" fill="#FFB8B8"/>
<path d="M101.158 370.193L77.1642 370.194L77.1638 360.916L91.8874 360.915C94.3461 360.915 96.7041 361.893 98.4427 363.633C100.181 365.373 101.158 367.733 101.158 370.193L101.158 370.193Z" fill="#2F2E41"/>
<path d="M51.4003 363.099L59.0343 363.099L62.6666 333.626L51.3984 333.627L51.4003 363.099Z" fill="#FFB8B8"/>
<path d="M73.7584 370.193L49.7644 370.194L49.764 360.916L64.4876 360.915C66.9462 360.915 69.3042 361.893 71.0429 363.633C72.7815 365.373 73.7583 367.733 73.7584 370.193L73.7584 370.193Z" fill="#2F2E41"/>
<path d="M58.0717 354.035L50.6146 353.642C50.2301 353.622 49.8534 353.526 49.5064 353.359C49.1593 353.192 48.8489 352.958 48.5929 352.67C48.337 352.382 48.1407 352.046 48.0154 351.681C47.8902 351.317 47.8384 350.931 47.8631 350.547L56.7759 251.782L97.8203 262.867L101.775 261.787L89.4085 349.22C89.3032 349.878 88.9768 350.48 88.4834 350.927C87.99 351.374 87.3589 351.639 86.6946 351.679L78.6559 352.054C78.2539 352.076 77.8517 352.015 77.4747 351.874C77.0976 351.732 76.7539 351.515 76.4653 351.234C76.1767 350.953 75.9494 350.615 75.7979 350.242C75.6464 349.868 75.5739 349.468 75.5849 349.065L77.0415 296.589C77.0483 296.346 76.9641 296.11 76.8054 295.926C76.6467 295.743 76.425 295.625 76.1841 295.597C75.9432 295.569 75.7005 295.632 75.5038 295.774C75.3071 295.916 75.1707 296.127 75.1215 296.365L61.0748 351.718C60.9422 352.374 60.5861 352.965 60.0672 353.388C59.5484 353.812 58.8989 354.042 58.2294 354.039C58.1772 354.039 58.1246 354.038 58.0717 354.035Z" fill="#2F2E41"/>
<path d="M80.1708 170.971C88.6178 170.971 95.4655 164.118 95.4655 155.664C95.4655 147.209 88.6178 140.356 80.1708 140.356C71.7237 140.356 64.876 147.209 64.876 155.664C64.876 164.118 71.7237 170.971 80.1708 170.971Z" fill="#FFB8B8"/>
<path d="M54.7061 200.637L56.3878 236.952L56.9957 250.165C57.02 250.74 57.2151 251.295 57.5561 251.758C57.8972 252.222 58.3686 252.573 58.9102 252.767L98.3511 267.067C98.6697 267.185 99.0073 267.244 99.3472 267.241C99.7356 267.243 100.121 267.167 100.479 267.016C100.837 266.866 101.161 266.645 101.433 266.367C101.704 266.088 101.916 265.758 102.057 265.395C102.197 265.033 102.263 264.646 102.251 264.257L100.634 198.96C100.528 193.603 98.5578 188.451 95.063 184.392C91.5681 180.333 86.7678 177.621 81.4895 176.724C81.108 176.666 80.7199 176.608 80.3318 176.556C77.0588 176.149 73.7366 176.466 70.5988 177.482C67.461 178.499 64.584 180.191 62.17 182.44C59.6704 184.741 57.7063 187.564 56.4165 190.708C55.1268 193.852 54.5429 197.242 54.7061 200.637L54.7061 200.637Z" fill="#CCCCCC"/>
<path d="M117.192 259.82C116.259 259.53 115.407 259.026 114.703 258.348C113.999 257.671 113.464 256.837 113.139 255.915C112.814 254.993 112.709 254.008 112.832 253.039C112.956 252.069 113.304 251.141 113.849 250.33L100.474 232.53L112.015 231.815L122.947 248.828C124.117 249.734 124.932 251.023 125.247 252.469C125.563 253.915 125.359 255.427 124.673 256.738C123.986 258.05 122.86 259.077 121.492 259.641C120.124 260.204 118.602 260.268 117.192 259.82H117.192Z" fill="#FFB8B8"/>
<path d="M107.788 247.109C107.434 246.965 107.111 246.752 106.84 246.483C106.568 246.213 106.353 245.893 106.206 245.539L86.0553 197.49C85.6599 196.549 85.4537 195.54 85.4483 194.519C85.4429 193.498 85.6385 192.487 86.024 191.542C86.4094 190.597 86.9772 189.737 87.6947 189.012C88.4122 188.287 89.2655 187.711 90.2058 187.316C91.146 186.921 92.1549 186.715 93.1746 186.71C94.1943 186.706 95.2049 186.902 96.1487 187.289C97.0925 187.675 97.9509 188.244 98.6749 188.963C99.3989 189.682 99.9743 190.536 100.368 191.477L120.519 239.527C120.816 240.24 120.82 241.041 120.528 241.756C120.236 242.471 119.673 243.041 118.961 243.341L110.016 247.098C109.664 247.247 109.285 247.325 108.903 247.327C108.52 247.329 108.142 247.255 107.788 247.109L107.788 247.109Z" fill="#CCCCCC"/>
<path d="M75.2534 245.414L94.6072 208.325C94.9805 207.612 95.6211 207.076 96.3887 206.835C97.1563 206.593 97.9881 206.667 98.7016 207.039L126.794 221.723C127.506 222.096 128.042 222.738 128.283 223.506C128.524 224.274 128.45 225.107 128.079 225.821L108.725 262.91C108.352 263.623 107.711 264.159 106.943 264.4C106.176 264.641 105.344 264.568 104.63 264.196L76.5384 249.512C75.8257 249.138 75.2902 248.497 75.0493 247.729C74.8084 246.961 74.8818 246.128 75.2534 245.414Z" fill="#3F3D56"/>
<path d="M88.2328 228.469C87.8887 227.554 87.3358 226.732 86.618 226.069C85.9003 225.406 85.0376 224.92 84.0989 224.65C83.1602 224.38 82.1714 224.333 81.2114 224.514C80.2515 224.694 79.3469 225.097 78.57 225.689L60.0262 213.377L59.9947 224.951L77.609 234.868C78.5813 235.984 79.9151 236.721 81.3764 236.951C82.8378 237.181 84.3333 236.889 85.6008 236.125C86.8682 235.362 87.8266 234.176 88.3079 232.776C88.7892 231.376 88.7626 229.851 88.2328 228.469Z" fill="#FFB8B8"/>
<path d="M64.7872 231.072L49.6321 219.057C47.9926 218.506 46.5112 217.565 45.315 216.315C44.1188 215.065 43.2436 213.543 42.7645 211.879C42.2854 210.216 42.2167 208.462 42.5643 206.766C42.9119 205.07 43.6655 203.485 44.7602 202.145L58.5207 184.095C59.4769 182.926 60.8217 182.14 62.3093 181.881C63.7969 181.622 65.3279 181.908 66.6224 182.686C67.9169 183.464 68.8885 184.682 69.3595 186.118C69.8305 187.553 69.7695 189.111 69.1877 190.505L58.3001 208.33L74.3004 215.926C74.6724 216.102 75.0028 216.356 75.2697 216.67C75.5366 216.984 75.7339 217.351 75.8485 217.747C75.9632 218.143 75.9926 218.558 75.9349 218.966C75.8771 219.374 75.7335 219.765 75.5135 220.114L69.0548 230.344C68.8364 230.689 68.5481 230.985 68.2084 231.212C67.8687 231.438 67.4852 231.591 67.0828 231.66C67.0668 231.663 67.0507 231.665 67.0347 231.667C66.6392 231.727 66.2358 231.705 65.8492 231.603C65.4627 231.5 65.1012 231.32 64.7872 231.072Z" fill="#CCCCCC"/>
<path d="M68.6137 165.914C68.5481 165.722 68.5273 165.517 68.5528 165.316C68.5784 165.114 68.6498 164.921 68.7613 164.752C68.8729 164.582 69.0218 164.44 69.1966 164.337C69.3714 164.234 69.5674 164.173 69.7697 164.157C70.1839 164.18 70.5893 164.286 70.9614 164.47C71.3334 164.653 71.6644 164.911 71.9343 165.226C72.4879 165.865 73.1323 166.418 73.8468 166.869C74.5867 167.243 75.5902 167.189 76.0119 166.478C76.408 165.81 76.1366 164.915 75.8969 164.138C75.2867 162.164 74.9453 160.115 74.8819 158.049C74.8128 155.743 75.1379 153.336 76.4136 151.537C78.06 149.216 81.004 148.335 83.79 148.399C86.5761 148.462 89.317 149.323 92.0767 149.867C93.0294 150.055 94.1493 150.151 94.7865 149.412C95.4641 148.626 95.2152 147.355 94.927 146.294C94.1792 143.54 93.3858 140.694 91.6482 138.47C89.7695 136.16 87.0858 134.648 84.1377 134.238C81.3073 133.887 78.4341 134.214 75.7543 135.191C71.3883 136.568 67.5465 139.247 64.7428 142.869C61.8525 146.72 60.6036 151.56 61.2692 156.331C61.9194 160.486 64.1192 164.24 67.4253 166.836L68.6137 165.914Z" fill="#2F2E41"/>
<path d="M262.328 363.221C258.258 361.447 254.657 358.751 251.807 355.345C248.957 351.94 246.937 347.918 245.906 343.597C244.875 339.276 244.862 334.775 245.867 330.448C246.872 326.121 248.868 322.088 251.698 318.665C248.417 321.062 245.683 324.131 243.678 327.666C241.673 331.202 240.442 335.124 240.067 339.172C239.692 343.22 240.181 347.301 241.503 351.145C242.825 354.99 244.948 358.509 247.732 361.469C250.516 364.429 253.898 366.762 257.652 368.315C261.406 369.867 265.448 370.602 269.507 370.472C273.567 370.341 277.553 369.348 281.2 367.558C284.847 365.768 288.072 363.222 290.661 360.089C286.623 363.043 281.883 364.886 276.911 365.436C271.94 365.985 266.912 365.221 262.328 363.221Z" fill="#3F3D56"/>
</g>
<defs>
<clipPath id="clip0">
<rect width="526" height="371" fill="white"/>
</clipPath>
</defs>
</svg>
